<svg viewBox="0 0 16 16" xmlns="http://www.w3.org/2000/svg"><g fill="none"><path d="M2.642 15.067L.048 6.888A1.32 1.32 0 0 1 .5 5.468L7.188.272a1.292 1.292 0 0 1 1.601.01l6.71 5.359c.421.336.594.898.436 1.415l-2.589 8.017c-.168.55-.671.926-1.242.926H3.887c-.573 0-1.079-.38-1.245-.933z" fill="#4285F4"/><path d="M4.378 12s3.077-7.09 4.294-7.636l6.278 5.744-1.604 4.966c-.168.55-.671.926-1.242.926H8.966l-4.588-4z" fill-opacity=".1" fill="#000"/><path d="M9.667 10.182L10.345 12h1.266L8.673 4.364H7.317L4.38 12h1.266l.679-1.818h3.343zM6.685 9.09l1.31-3.636L9.306 9.09H6.685z" fill="#FFF"/></g></svg>