<svg viewBox="0 0 16 16" xmlns="http://www.w3.org/2000/svg"><g fill="none"><path d="M1.09 13.867A1.08 1.08 0 0 1 0 12.8c0-.194.053-.376.145-.532L7.055.534C7.243.215 7.595 0 8 0c.405 0 .757.215.945.534l6.91 11.734c.092.156.145.338.145.532 0 .59-.488 1.067-1.09 1.067H1.09z" fill="#03A9F4"/><path d="M16 12.8L8 4.978v8.889h6.91c.602 0 1.09-.478 1.09-1.067z" fill-opacity=".1" fill="#000"/><path d="M7.055.534L.145 12.268A1.041 1.041 0 0 0 0 12.8c0 .59.488 1.067 1.09 1.067H8V0c-.405 0-.757.215-.945.534z" fill="#039BE5"/><path fill="#F1F1F1" d="M8 4.978l6.182 10.666-.364.356L8 13.867 2.182 16l-.364-.356z"/><path fill="#E1E1E1" d="M8 4.978l6.182 10.666-.364.356L8 13.867"/></g></svg>