<svg viewBox="0 0 16 16" xmlns="http://www.w3.org/2000/svg"><g fill="none" fill-rule="evenodd"><path d="M11.517 15H4.483a1 1 0 0 1-.786-.454L.18 8.454a1.001 1.001 0 0 1 0-.908l3.517-6.092A1 1 0 0 1 4.483 1h7.034a1 1 0 0 1 .786.454l3.517 6.092a.999.999 0 0 1 0 .908l-3.517 6.092a.927.927 0 0 1-.338.321.927.927 0 0 1-.448.133z" fill="#4285F4"/><path d="M8.667 15h2.85c.146 0 .306-.05.448-.133a.927.927 0 0 0 .338-.32L15.05 9.79 8.436 3.177l-1.33 1.531.843.844-2.033.914-.858 2.016-.844-.844-1.612 1.297L8.667 15z" fill-opacity=".1" fill="#000"/><path d="M8.934 4.673a4.02 4.02 0 0 0-1.829.035l.436-1.416a.305.305 0 0 1 .275-.201h.418a.3.3 0 0 1 .275.201l.425 1.381zM12 7.689l1.308.402a.3.3 0 0 1 .201.275v.418a.212.212 0 0 1-.209.213h-1.218A4.05 4.05 0 0 0 12 7.689zM4.107 8.997H2.75a.208.208 0 0 1-.21-.213v-.418c0-.118.091-.24.202-.275L4.2 7.643a4.014 4.014 0 0 0-.093 1.354zm3.918 2.953a3.375 3.375 0 1 1 0-6.75 3.375 3.375 0 0 1 0 6.75zm0-.844a2.531 2.531 0 1 0 0-5.062 2.531 2.531 0 0 0 0 5.062zM7.13 9.47a1.266 1.266 0 1 1 1.79-1.79l.298-.298a1.687 1.687 0 1 1-2.386 2.386l.298-.298zm.895-.051a.844.844 0 1 0 0-1.688.844.844 0 0 0 0 1.688z" fill="#FFF"/></g></svg>