<svg viewBox="0 0 16 16" xmlns="http://www.w3.org/2000/svg"><g fill="none" fill-rule="evenodd"><path d="M6.678 11.362l2.631-2.631 4.093 4.093a1.86 1.86 0 0 1-2.631 2.631l-4.093-4.093z" fill="#0066D9"/><path d="M2.585 12.824l4.093-4.093a1.86 1.86 0 0 1 2.631 2.631l-4.093 4.093a1.86 1.86 0 0 1-2.631-2.631z" fill="#4285F4"/><path d="M9.309.545L6.678 3.176l4.093 4.093a1.86 1.86 0 0 0 2.631-2.631L9.31.545z" fill="#EA4335"/><path d="M2.585 4.638l2.631 2.631 4.093-4.093A1.86 1.86 0 1 0 6.678.545L2.585 4.638z" fill="#FBBC05"/><circle fill="#34A853" cx="3.9" cy="5.953" r="1.86"/></g></svg>