<svg viewBox="0 0 16 16" xmlns="http://www.w3.org/2000/svg"><g fill="none"><path d="M.999 8v6.737c0 .697.57 1.263 1.275 1.263h12.451A1.27 1.27 0 0 0 16 14.737V8H.999z" fill="#F44336"/><path d="M2.275 0A1.27 1.27 0 0 0 1 1.263V8h15V1.263A1.27 1.27 0 0 0 14.725 0H2.275z" fill="#2196F3"/><path d="M12 0v16h2.8c.663 0 1.2-.566 1.2-1.263V1.263C16 .566 15.463 0 14.8 0H12z" fill="#3D3D3D"/><path d="M1.003 8l-.707 2.957c-.086.375.005.768.247 1.068.242.3.608.475.996.475h9.928c.388 0 .754-.175.996-.475s.333-.693.247-1.068L12 8H1.003z" fill="#FFC107"/><path d="M9.078 16h5.647A1.27 1.27 0 0 0 16 14.737V7.59l-3.823-3.787L11.22 8H1.003l8.075 8z" fill-opacity=".1" fill="#000"/><path d="M1.544 3.496a1.28 1.28 0 0 0-.996.475c-.242.3-.333.693-.247 1.068L1 8h11l.715-2.961a1.254 1.254 0 0 0-.247-1.068 1.28 1.28 0 0 0-.996-.475H1.544z" fill="#2BAD2F"/></g></svg>