<svg viewBox="0 0 16 16" xmlns="http://www.w3.org/2000/svg"><g fill="none" fill-rule="evenodd"><path d="M6.718 9.282l3.997-.027a5.437 5.437 0 0 1-9.123 5.153l2.563-2.563a1.812 1.812 0 0 0 2.563-2.563z" fill="#34A853"/><path d="M9.282 6.718a1.812 1.812 0 1 0 2.563-2.563l2.563-2.563a5.437 5.437 0 1 1-7.69 7.69l2.564-2.564z" fill="#5BB974"/><path d="M11.845 4.155a1.812 1.812 0 1 0-2.563 2.563l-4.122-.67a5.437 5.437 0 0 1 9.247-4.456 1.812 1.812 0 1 1-2.562 2.563z" fill="#1D8B3D"/><path d="M4.155 11.845a1.812 1.812 0 0 1 2.563-2.563l2.566-.003-.002-2.56a5.437 5.437 0 1 0-7.69 7.689 1.812 1.812 0 1 0 2.563-2.563z" fill="#5BB974"/></g></svg>