<svg viewBox="0 0 16 16" xmlns="http://www.w3.org/2000/svg"><g fill="none"><path d="M10 13.5a2.5 2.5 0 1 0 5 0v-5a2.5 2.5 0 1 0-5 0v5z" fill="#4285F4"/><path d="M1 13.5a2.5 2.5 0 1 0 5 0V11L1 8.5v5z" fill="#EA4335"/><path d="M6.5 11H6L3.5 6h3a2.5 2.5 0 0 1 0 5z" fill="#FBBC05"/><path d="M6 11v2.5c0 .309-.056.604-.158.877l-4.11-4.11L6 11z" fill-opacity=".1" fill="#000"/><path d="M3.5 11A2.5 2.5 0 1 1 6 8.5V11H3.5z" fill="#FA7B17"/><path d="M3.5 0a2.5 2.5 0 0 0 0 5h9V0h-9z" fill="#34A853"/><circle fill="#188038" cx="12.5" cy="2.5" r="2.5"/></g></svg>