<svg viewBox="0 0 16 16" xmlns="http://www.w3.org/2000/svg"><g fill="none"><path d="M6.545 2.486H1.091C.488 2.486 0 2.984 0 3.6v5.85-.047a.56.56 0 0 1 .16-.394l5.12-2.672 1.265-3.851z" fill="#34A853"/><path d="M14.91 14H1.09C.489 14 0 13.501 0 12.886V9.403a.56.56 0 0 1 .16-.394l5.222-2.73L7.84 1.163A.539.539 0 0 1 8.226 1h6.683C15.512 1 16 1.499 16 2.114v10.772C16 13.5 15.512 14 14.91 14z" fill="#4285F4"/><path d="M16 12.886V8.893L8.273 1a.566.566 0 0 0-.434.17L5.595 6.18.16 9.008a.563.563 0 0 0-.16.395v.047L4.455 14h10.454c.603 0 1.091-.499 1.091-1.114z" fill-opacity=".1" fill="#000"/><path d="M7.84 1.163L4.95 5.76.16 9.008a.563.563 0 0 0-.16.395v.047c0-.154.122-.279.273-.279h6.636C7.512 9.171 8 8.673 8 8.057V1.28c0-.156.122-.28.273-.28h-.047a.54.54 0 0 0-.386.163z" fill="#EA4335"/><path d="M0 9.45c0-.221.14-.417.346-.484l4.848-1.575a1.654 1.654 0 0 0 1.062-1.085l1.542-4.951A.5.5 0 0 1 8.273 1h-.047a.537.537 0 0 0-.385.163L.16 9.008a.563.563 0 0 0-.16.395v.047z" fill="#FBBC05"/></g></svg>