<svg viewBox="0 0 16 16" xmlns="http://www.w3.org/2000/svg"><g fill="none"><path d="M11.429 9.524L9.143 11.81l-1.524-1.524V1.762c0-.42.341-.762.762-.762h2.286c.42 0 .762.341.762.762v7.762z" fill="#34A853"/><path d="M7.619 10.286L6.095 8.762 3.81 11.048V5.333c0-.42.34-.762.761-.762h2.286c.42 0 .762.342.762.762v4.953z" fill="#FBBC05"/><path d="M3.81 11.048L0 14.858V9.142c0-.42.341-.762.762-.762h2.286c.42 0 .762.341.762.762v1.905z" fill="#EA4335"/><path fill="#4285F4" d="M9.143 16l-3.048-3.048L3.048 16H0l6.095-6.095 3.048 3.047 4.19-4.19-1.143-1.143H16v3.81l-1.143-1.143z"/></g></svg>