<svg viewBox="0 0 16 16" xmlns="http://www.w3.org/2000/svg"><g fill="none"><path fill="#34A853" d="M8.002 11.64l-2.17-2.157L4 9.5l.105 1.696 3.897 3.883 5.609-5.596-.156-1.438-1.557-.288z"/><path d="M2.887 6.538a1.506 1.506 0 0 1-.444-1.078c0-.407.165-.787.444-1.08a1.506 1.506 0 0 1 1.079-.443c.406 0 .8.165 1.079.444l1.218 1.218L8 5.5l-.011-1.627L6.77 2.655A3.947 3.947 0 0 0 3.966 1.5a3.953 3.953 0 0 0-2.805 6.752L2.38 9.47 4 9.5l.093-1.756-1.206-1.206z" fill="#EA4335"/><path d="M14.83 2.655A3.947 3.947 0 0 0 12.024 1.5c-1.016 0-2.03.38-2.805 1.155L6.276 5.599l-.094 1.72 1.82.006 2.944-2.931a1.506 1.506 0 0 1 1.079-.445c.406 0 .8.165 1.078.445.292.291.444.672.444 1.078s-.164.787-.444 1.079l-1.218 1.218 1.726 1.714 1.218-1.219a3.945 3.945 0 0 0 0-5.61z" fill="#4285F4"/><path fill="#FBBC05" d="M2.392 9.483l1.713 1.713 3.897-3.884L6.276 5.6z"/></g></svg>