<svg viewBox="0 0 16 16" xmlns="http://www.w3.org/2000/svg"><g fill="none"><path d="M9.91 4.059c1.08 0 1.955.882 1.955 1.968 0 0 1.038 1.167 1.5 1.167.463 0 1.539-1.166 1.539-1.166C14.904 3.251 12.667 1 9.91 1c-1.38 0-2.63.563-3.533 1.473 0 0-.152 1.75.258 2.163.41.412 1.891 0 1.891 0a1.945 1.945 0 0 1 1.384-.577z" fill="#FBBC05"/><path d="M4.994 12.941a1.963 1.963 0 0 1-1.956-1.968l-1.596-.876L0 10.972C0 13.749 2.237 16 4.994 16c1.38 0 2.63-.563 3.533-1.473l-.162-2.163H6.378a1.945 1.945 0 0 1-1.384.577z" fill="#4285F4"/><path d="M6.378 9.582c.354.356.572.848.572 1.392 0 .542-.218 1.034-.572 1.39l2.149 2.163a5.026 5.026 0 0 0 1.46-3.475l-.077.002c-.42 0-1.772-4.027-1.384-3.636a1.967 1.967 0 0 1-.572-1.392c0-.542.218-1.034.572-1.39l-2.15-2.163a5.026 5.026 0 0 0-1.46 3.475l.078-.002c.522 0 1.858 4.113 1.384 3.636z" fill="#EA4335"/><path d="M9.988 11.052a5.05 5.05 0 0 1-.36 1.802l-3.25-3.271a4.962 4.962 0 0 0 3.61 1.469z" fill-opacity=".1" fill="#000"/><path d="M11.864 6.027A1.962 1.962 0 0 1 9.91 7.995c-.54 0-1.03-.22-1.383-.576h-.001a4.962 4.962 0 0 0-3.532-1.473l-.078.002C2.195 5.991 0 8.223 0 10.973h3.04c0-1.087.875-1.968 1.955-1.968.54 0 1.029.22 1.383.576a4.962 4.962 0 0 0 3.533 1.473l.077-.002c2.723-.043 4.917-2.274 4.917-5.025h-3.04z" fill="#34A853"/></g></svg>