<svg viewBox="0 0 16 16" xmlns="http://www.w3.org/2000/svg"><g fill="none"><path d="M15.682 8.182c0-.567-.048-1.114-.14-1.637H8v3.091h4.306a3.692 3.692 0 0 1-1.596 2.422v2.011h2.59c1.513-1.393 2.382-3.453 2.382-5.887z" fill="#4285F4"/><path d="M10.71 12.058c-.715.48-1.635.76-2.71.76-2.082 0-3.848-1.404-4.48-3.297H.85v2.072A7.998 7.998 0 0 0 8 16c2.16 0 3.977-.71 5.302-1.93l-2.591-2.012z" fill="#34A853"/><path d="M3.273 8c0-.53.088-1.04.248-1.52V4.405H.85A7.974 7.974 0 0 0 0 8c0 1.293.307 2.513.85 3.594l2.67-2.072A4.814 4.814 0 0 1 3.274 8z" fill="#FBBC05"/><path d="M8 3.182c1.175 0 2.23.404 3.06 1.196l2.293-2.293C11.966.793 10.158 0 8 0A7.999 7.999 0 0 0 .85 4.406l2.67 2.072C4.153 4.586 5.919 3.182 8 3.182z" fill="#EA4335"/></g></svg>