<svg viewBox="0 0 16 16" xmlns="http://www.w3.org/2000/svg"><defs><linearGradient x1="50.003%" y1="100.779%" x2="50.003%" y2="-.041%" id="a"><stop stop-color="#1A73E8" offset="0%"/><stop stop-color="#4285F4" offset="100%"/></linearGradient></defs><g fill="none"><path d="M11 12.544v1.678C11 15.203 10.2 16 9.215 16a1.781 1.781 0 0 1-1.785-1.778V9.828L10 10l1 2.544z" fill="#34A853"/><path fill="url(#a)" d="M11 12.544L7.43 9.828V5.547L11 1.778z"/><path d="M8.078.405l.067-.051-.715 5.193-1.516 1.246A1.77 1.77 0 0 1 4.78 7.2a1.777 1.777 0 0 1-1.132-3.15L8.078.405z" fill="#FBBC04"/><path d="M10.999 1.716v.061c0 .512-.22 1.02-.648 1.37l-2.921 2.4V1.778a1.771 1.771 0 0 1 .813-1.49l.046-.03A1.21 1.21 0 0 1 8.375.21l.079-.04.066-.03.08-.032.084-.028c.05-.015.103-.03.157-.04.016-.005.032-.007.05-.01l.035-.006a1.509 1.509 0 0 1 .199-.022L9.215 0A1.93 1.93 0 0 1 9.6.042a1.17 1.17 0 0 1 .171.047 1.602 1.602 0 0 1 .22.087l.09.046a1.852 1.852 0 0 1 .272.186l.064.055.001.002.06.058.06.06a1.49 1.49 0 0 1 .176.228l.03.045c.018.028.034.058.049.086.01.022.028.057.04.078l.028.065a2.129 2.129 0 0 1 .06.163 2 2 0 0 1 .058.245l.008.06.008.074.005.06v.03z" fill="#EA4335"/></g></svg>