<svg viewBox="0 0 16 16" xmlns="http://www.w3.org/2000/svg"><g fill="none" fill-rule="evenodd"><path d="M7 .999A.997.997 0 0 1 8 0c.552 0 1 .443 1 .999v1.002A.997.997 0 0 1 8 3c-.552 0-1-.443-1-.999V.999zm0 13A.997.997 0 0 1 8 13c.552 0 1 .443 1 .999v1.002A.997.997 0 0 1 8 16c-.552 0-1-.443-1-.999v-1.002zm0-9.002C7 4.447 7.444 4 8 4c.552 0 1 .453 1 .997v6.006c0 .55-.444.997-1 .997-.552 0-1-.453-1-.997V4.997z" fill="#FBBC05"/><path d="M3.5 10.999a.997.997 0 0 1 1-.999c.552 0 1 .443 1 .999v1.002a.997.997 0 0 1-1 .999c-.552 0-1-.443-1-.999v-1.002zm0-7.008A.993.993 0 0 1 4.5 3a1 1 0 0 1 1 .99v4.02c0 .546-.444.99-1 .99a1 1 0 0 1-1-.99V3.99z" fill="#EA4335"/><rect fill="#4285F4" x="14" y="6.5" width="2" height="3" rx="1"/><rect fill="#0066D9" y="6.5" width="2" height="3" rx="1"/><path d="M10.5 3.999a.997.997 0 0 1 1-.999c.552 0 1 .443 1 .999v1.002a.997.997 0 0 1-1 .999c-.552 0-1-.443-1-.999V3.999zm0 3.992a.993.993 0 0 1 1-.991 1 1 0 0 1 1 .99v4.02c0 .546-.444.99-1 .99a1 1 0 0 1-1-.99V7.99z" fill="#34A853"/></g></svg>