<svg viewBox="0 0 16 16" xmlns="http://www.w3.org/2000/svg"><g fill="none" fill-rule="evenodd"><path d="M2 1.093C2 .49 2.487 0 3.089 0H12l.545 12.727L11 12v4l-4.5-2L2 16V1.093z" fill="#FBBC05"/><path d="M11 .992A.993.993 0 0 1 12 0c.552 0 1.006.444 1.013.994l.169 12.824L11 12.91V.992z" fill="#E5A30F"/><path d="M6.587 6.998h2.516c.037.17.067.328.067.551 0 1.535-1.03 2.626-2.58 2.626A2.688 2.688 0 0 1 6.587 4.8c.726 0 1.333.266 1.798.701l-.763.742c-.193-.183-.53-.4-1.035-.4-.89 0-1.615.739-1.615 1.644 0 .906.726 1.645 1.615 1.645 1.03 0 1.409-.712 1.478-1.134H6.587v-1z" fill="#F5F5F5"/></g></svg>