<svg viewBox="0 0 16 16" xmlns="http://www.w3.org/2000/svg"><g fill="none"><path d="M11.965 10.37a.517.517 0 0 1-.19.19l-3.62 2.109a.516.516 0 0 1-.518 0l-3.62-2.114a.51.51 0 0 1-.186-.186l-2.692 1.568c.09.155.218.288.378.381l5.862 3.414c.32.186.715.186 1.035 0l5.862-3.414c.16-.093.289-.226.378-.381l-2.69-1.567z" fill="#00ACC1"/><path d="M3.91 10.56a.548.548 0 0 1-.113-.171v-.001L1.14 11.936c.09.155.218.288.378.381l5.862 3.414c.32.186.715.186 1.035 0l.395-.23-4.899-4.942z" fill-opacity=".1" fill="#000"/><path d="M14.276 3.683l-.863-.503-.863-.503a1.022 1.022 0 0 0-.516-.137v7.569a.533.533 0 0 1-.07.26l2.69 1.567c.09-.156.14-.336.14-.522V4.586c0-.373-.198-.717-.518-.903z" fill="#FF5722"/><path d="M12.034 5.59l2.76 2.783V4.586a.345.345 0 0 0-.518-.3L12.034 5.59z" fill-opacity=".1" fill="#000"/><path d="M3.831 10.368a.523.523 0 0 1-.072-.265V5.89c0-.186.098-.358.258-.452l3.62-2.109a.522.522 0 0 0 .26-.452V.343a.216.216 0 0 0-.324-.188L1.517 3.683c-.32.186-.517.53-.517.903v6.828c0 .186.05.366.139.522l2.692-1.568z" fill="#673AB7"/><path d="M6.839 5.778l.044.025a.218.218 0 0 1 0 .377l-.732.426a.218.218 0 0 0 0 .377l.043.025a.218.218 0 0 1 0 .376l-.733.427a.218.218 0 0 0 0 .377l.108.063c.16.093.357.093.517 0l.862-.501a.514.514 0 0 1 .518 0l.172.1c.16.093.357.093.517 0l3.88-2.26-1.279-1.279a1.371 1.371 0 0 0-1.665-.218L6.839 5.408a.213.213 0 0 0 0 .37z" fill="#FFC107"/><path d="M11.086 5.84l-.172-.1a.514.514 0 0 0-.517 0l-1.552.904a.514.514 0 0 1-.517 0l-.108-.062a.218.218 0 0 1 0-.377l.733-.427a.218.218 0 0 0 0-.376l-.044-.025a.218.218 0 0 1 0-.377l.044-.025a.218.218 0 0 0 0-.377l-.044-.026a.219.219 0 0 1 0-.376l2.607-1.519c.32-.186.714-.186 1.034 0l.862.502v1.205c0 .249-.13.48-.344.604l-.344.2-1.12.654a.512.512 0 0 1-.518-.001z" fill="#FF9800"/><path d="M14.793 4.586c0-.373-.197-.717-.517-.903L12.55 2.678a1.026 1.026 0 0 0-1.028-.003l-.545.317a.218.218 0 0 0 0 .377l.044.025a.218.218 0 0 1 0 .376l-.732.427a.218.218 0 0 0 0 .376l.107.063c.16.093.357.093.518 0l.172-.1a.514.514 0 0 1 .517 0l.862.501c.16.093.357.093.518 0l1.293-.753a.345.345 0 0 1 .516.302z" fill="#FF5722"/></g></svg>