<svg viewBox="0 0 16 16" xmlns="http://www.w3.org/2000/svg"><g fill="none"><path d="M2.343 13.657C4.175 8.43 7.946 4.66 13.657 2.343A8 8 0 1 1 2.343 13.657z" fill="#F1F3F4"/><path d="M2.343 13.657A8 8 0 1 1 13.657 2.343L2.343 13.657z" fill="#DADCE0"/><path d="M16 7.876v.244a8 8 0 0 1-9.62 7.714l-3.107-3.108 9.455-9.453 3.11 3.11c.099.483.154.982.162 1.493z" fill-opacity=".1" fill="#000" opacity=".35"/><path fill="#EA4335" d="M12.726 3.273L6.274 6.275l-3.002 6.452 6.453-3.002z"/><path d="M7.998 8.725a.727.727 0 1 1 0-1.454.727.727 0 0 1 0 1.454z" fill="#D2D4D8"/></g></svg>