<svg viewBox="0 0 16 16" xmlns="http://www.w3.org/2000/svg"><g fill="none"><path d="M15 6.91C15 3.093 11.864 0 8 0S1 3.094 1 6.91c0 3.614 3.34 6.545 7 6.545V16c4.252-2.13 7-5.555 7-9.09z" fill="#00897B"/><path d="M11.321 13.822L6.465 8.966l-.468-2.763.591-3.118 7.451 7.453c-.632 1.18-1.556 2.292-2.718 3.284z" fill-opacity=".1" fill="#000"/><path d="M8.822 9.982l-.003-.971a6.716 6.716 0 0 1-2.822-2.808h-.969v.97a7.707 7.707 0 0 0 2.818 2.809h.976z" fill="#E0E0E0"/><path d="M10.033 8.06c.502.097 1.091.197 1.648.269.217.029.319.114.319.309v2.026a.333.333 0 0 1-.333.333 7.626 7.626 0 0 1-3.82-1.015L9.691 8.14c.092-.092.221-.103.342-.08zM6.67 3.306c.072.557.183 1.178.281 1.681.023.121.012.25-.08.342L5.028 7.173A7.703 7.703 0 0 1 4 3.337C4 3.153 4.149 3 4.333 3h2.03c.184-.001.279.088.307.306z" fill="#F5F5F5"/></g></svg>