<svg viewBox="0 0 48 48" xmlns="http://www.w3.org/2000/svg"><g fill="none"><path d="M42.313 8H5.78C4.813 8 4 8.792 4 9.737v28.434C4 39.116 4.813 40 5.781 40h11.032v-1.31c0-.58.343-1.037.937-1.037.594 0 .938.457.938 1.037V40h10.625v-1.31c0-.58.5-1.037 1.093-1.037.594 0 1.094.457 1.094 1.037V40h10.813C43.28 40 44 39.147 44 38.171V9.737C44 8.792 43.281 8 42.312 8z" fill="#34A853"/><ellipse fill="#FFF" cx="24.063" cy="17.905" rx="3.531" ry="3.444"/><path d="M25.969 22.415c-2.532-.122-5.344-.091-6.5-.396-1.282-.335-3-1.432-3.344-4.602a1.777 1.777 0 0 0-.469-1.067c-.344-.335-.75-.609-1.687-.457-2.125.366-2.313 4.998 1.094 8.747.843.792 1.75 1.371 2.53 1.92.72.488 1.282 1.036 1.313 2.347v2.773h10.5v-3.505h.094c.875.03 1.656.275 2.125 2.865.031.152.25.61.625.61h2.813c.312-.031.468-.305.468-.58v-.06c-.906-5.639-2.218-8.199-9.562-8.595z" fill="#FFF"/></g></svg>