<svg viewBox="0 0 48 48" xmlns="http://www.w3.org/2000/svg"><g fill="none"><path d="M2 21a3 3 0 0 1 3-3h38a3 3 0 0 1 3 3v22a3 3 0 0 1-3 3H5a3 3 0 0 1-3-3V21z" fill="#616161"/><path d="M12 38.5a.5.5 0 0 1 .5-.5h23a.5.5 0 0 1 .5.5v3a.5.5 0 0 1-.5.5h-23a.5.5 0 0 1-.5-.5v-3zm-4-7a.5.5 0 0 1 .5-.5h3a.5.5 0 0 1 .5.5v3a.5.5 0 0 1-.5.5h-3a.5.5 0 0 1-.5-.5v-3zm7 0a.5.5 0 0 1 .5-.5h3a.5.5 0 0 1 .5.5v3a.5.5 0 0 1-.5.5h-3a.5.5 0 0 1-.5-.5v-3zm7 0a.5.5 0 0 1 .5-.5h3a.5.5 0 0 1 .5.5v3a.5.5 0 0 1-.5.5h-3a.5.5 0 0 1-.5-.5v-3zm7 0a.5.5 0 0 1 .5-.5h3a.5.5 0 0 1 .5.5v3a.5.5 0 0 1-.5.5h-3a.5.5 0 0 1-.5-.5v-3zm7 0a.5.5 0 0 1 .5-.5h3a.5.5 0 0 1 .5.5v3a.5.5 0 0 1-.5.5h-3a.5.5 0 0 1-.5-.5v-3zm-28-7a.5.5 0 0 1 .5-.5h3a.5.5 0 0 1 .5.5v3a.5.5 0 0 1-.5.5h-3a.5.5 0 0 1-.5-.5v-3zm7 0a.5.5 0 0 1 .5-.5h3a.5.5 0 0 1 .5.5v3a.5.5 0 0 1-.5.5h-3a.5.5 0 0 1-.5-.5v-3zm7 0a.5.5 0 0 1 .5-.5h3a.5.5 0 0 1 .5.5v3a.5.5 0 0 1-.5.5h-3a.5.5 0 0 1-.5-.5v-3zm7 0a.5.5 0 0 1 .5-.5h3a.5.5 0 0 1 .5.5v3a.5.5 0 0 1-.5.5h-3a.5.5 0 0 1-.5-.5v-3zm7 0a.5.5 0 0 1 .5-.5h3a.5.5 0 0 1 .5.5v3a.5.5 0 0 1-.5.5h-3a.5.5 0 0 1-.5-.5v-3z" fill="#BDBDBD"/><path d="M40 46L24 33l13-15h6a3 3 0 0 1 3 3v22a3 3 0 0 1-3 3h-3z" fill-opacity=".1" fill="#000"/><path d="M11 5a3 3 0 0 1 3-3h20a3 3 0 0 1 3 3v16.067a3 3 0 0 1-1.115 2.334L24 33l-11.885-9.6A3 3 0 0 1 11 21.068V5z" fill="#16C1D7"/><path d="M30.67 12.283c-.585-.423-1.318-.74-2.03-.97.087-.463.207-.83.207-1.313H26.76c-.043.36-.168.68-.26 1-1.325-.123-2.767-.092-4 .213V9h8.508V7H22.5V5h-1.988v2h-4.487v2h4.488s.024 3.012 0 3.027c-.846.453-2.386 1.426-3.618 2.863-1.268 1.477-1.817 3.08-1.595 4.64a2.593 2.593 0 0 0 1.065 1.762c.673.483 1.558.658 2.49.5.857-.142 1.582-.515 2.385-.812.253.47.655.89 1.068 1.225.132-.132 1.437-1.47 1.445-1.462-.26-.245-.57-.533-.733-.855 1.085-.806 2.21-1.97 3.355-3.473.668-.875 1.175-1.92 1.503-3.025.027-.063.037-.1.064-.15.57.172 1.108.412 1.49.688 1.08.78 1.45 1.91 1.126 3.452-.458 2.205-3.2 3.575-5.558 3.575V23c3.247 0 6.922-1.955 7.6-5.21.483-2.31-.205-4.265-1.93-5.507zm-12.145 7.505c-.362.06-.692.01-.902-.138a.536.536 0 0 1-.23-.397c-.265-1.875 1.232-3.665 3.122-4.893v3.855c-.005.102-.025.387 0 .747-.765.428-1.348.718-1.99.826zm6.168-4.588c-.658.87-1.556 1.558-2.188 2.165V13.27c.89-.29 2.075-.362 2.983-.362.117 0 .23 0 .347.005a7.355 7.355 0 0 1-1.143 2.287z" fill="#F1F1F1"/></g></svg>