<svg viewBox="0 0 48 48" xmlns="http://www.w3.org/2000/svg"><g fill="none"><path d="M24 46l10.298-22L24 2 7 11v11c0 10.81 7.248 21.538 17 24z" fill="#FFA726"/><path d="M24 46V2l17 9v11c0 10.81-7.248 21.538-17 24z" fill="#FBBC05"/><path d="M27.405 14.335l-.008.007A4.963 4.963 0 0 0 24 13c-2.76 0-5 2.24-5 5v2h-1a2 2 0 0 0-2 2v10a2 2 0 0 0 .742 1.555l11.03 11.03c6.298-3.17 11.053-9.848 12.648-17.235L27.405 14.335z" fill-opacity=".1" fill="#BF360C"/><path d="M30 20h-1v-2c0-2.76-2.24-5-5-5s-5 2.24-5 5v2h-1a2 2 0 0 0-2 2v10a2 2 0 0 0 2 2h12a2 2 0 0 0 2-2V22a2 2 0 0 0-2-2zm-6 9a2 2 0 1 1-.001-3.999A2 2 0 0 1 24 29zm3-9h-6v-2.1c0-1.655 1.345-3 3-3s3 1.345 3 3V20z" fill="#F5F5F5"/></g></svg>