<svg viewBox="0 0 48 48" xmlns="http://www.w3.org/2000/svg"><g fill="none"><circle fill="#F5F5F5" cx="24" cy="24" r="22"/><path d="M45.996 24.45l-8.544-8.59-25.777 5.448 8.02 8.024-.855 7.958 8.443 8.467c10.449-1.563 18.495-10.475 18.713-21.308z" fill-opacity=".1" fill="#000"/><path d="M34 14.25H14.25c-2.21 0-4 1.79-4 4s1.79 4 4 4h7.328l12.422-8z" fill="#4878FF"/><path d="M38 18.25c0-2.21-1.79-4-4-4h-3.085a12.001 12.001 0 0 0-11.837 10.027l-1.563 9.37a3.957 3.957 0 0 0 3.902 4.603 3.957 3.957 0 0 0 3.898-3.285l1.615-9.393a4 4 0 0 1 3.942-3.322H34c2.21 0 4-1.79 4-4z" fill="#20C0F0"/><circle fill="#18E8A8" cx="34.25" cy="18.25" r="4"/></g></svg>