<svg viewBox="0 0 16 16" xmlns="http://www.w3.org/2000/svg"><g fill="none"><circle fill="#8BC34A" cx="8" cy="7.619" r="7.238"/><path d="M8 .381A7.239 7.239 0 0 0 .762 7.619h14.476A7.239 7.239 0 0 0 8 .381z" fill="#7CB342"/><path d="M8.762 3.048L7.238 4.19 6.46 7.62l-1.912 6.363A7.202 7.202 0 0 0 8 14.857c1.25 0 2.427-.317 3.453-.875l1.258-.87a7.237 7.237 0 0 0 2.325-3.79L8.762 3.048z" fill-opacity=".1" fill="#000"/><path d="M9.54 7.619H7.78l4.48 7.76 1.033.595a.191.191 0 0 0 .287-.165v-1.194L9.54 7.62z" fill="#CFCFCF"/><path d="M11.81 7.619a3.81 3.81 0 0 1-5.547 3.39L8 8l.22-.381H6.46l-4.04 6.996v1.195a.191.191 0 0 0 .287.164l1.033-.596L5.5 12.33a5.333 5.333 0 0 0 7.833-4.711H11.81z" fill="#EEE"/><path d="M9.714 4.19h-.952V3.048H7.238V4.19h-.952a.573.573 0 0 0-.572.572v2.857l1.882 1.88a.572.572 0 0 0 .808 0l1.882-1.88V4.762a.573.573 0 0 0-.572-.572z" fill="#616161"/><circle fill="#7CAF42" cx="8" cy="6.476" r="1"/></g></svg>