<svg viewBox="0 0 16 16" xmlns="http://www.w3.org/2000/svg"><g fill="none" fill-rule="evenodd"><path d="M11 11.006C11 9.898 11.888 9 13 9c1.105 0 2 .887 2 2.006v2.988A1.998 1.998 0 0 1 13 16c-1.105 0-2-.887-2-2.006v-2.988zm-10 0C1 9.898 1.888 9 3 9c1.105 0 2 .887 2 2.006v2.988A1.998 1.998 0 0 1 3 16c-1.105 0-2-.887-2-2.006v-2.988zM11 6c0-1.105.888-2 2-2 1.105 0 2 .888 2 2 0 1.105-.888 2-2 2-1.105 0-2-.888-2-2zM1 6c0-1.105.888-2 2-2 1.105 0 2 .888 2 2 0 1.105-.888 2-2 2-1.105 0-2-.888-2-2z" fill="#C58AF8"/><path d="M6 6.992C6 5.892 6.888 5 8 5c1.105 0 2 .9 2 1.992v7.016C10 15.108 9.112 16 8 16c-1.105 0-2-.9-2-1.992V6.992zM6 2c0-1.105.888-2 2-2 1.105 0 2 .888 2 2 0 1.105-.888 2-2 2-1.105 0-2-.888-2-2z" fill="#A142F4"/></g></svg>