<svg viewBox="0 0 16 16" xmlns="http://www.w3.org/2000/svg"><g fill="none" fill-rule="evenodd"><path fill="#00ACC1" d="M15 12V8l-1.969.389L11.5 10H6.523L8 16z"/><path fill="#E53935" d="M15 8l-3.5 2-1.477-6H15z"/><path fill="#F44336" d="M11.5 10V4H7.508L8 10z"/><path fill="#F9A825" d="M8 10H4.5l-.574-6H8z"/><path fill="#FDD835" d="M1 12V4h3.5v10z"/><path fill="#00BCD4" d="M8 16v-6H4.5v4z"/><path fill="#4DD0E1" d="M8 12l-3.5-2L8 8l3.5 2z"/><path fill="#FFEB3B" d="M8 4V2H4.5L1 4l3.5 2z"/><path fill="#FF5252" d="M15 4L8 0 4.5 2l7 4z"/></g></svg>