<svg viewBox="0 0 16 16" xmlns="http://www.w3.org/2000/svg"><g fill="none"><path d="M6.005 3.409L0 10.135v3.58A2.285 2.285 0 0 0 2.285 16h11.429c.851 0 1.593-.467 1.986-1.158v-.154L6.005 3.408z" fill="#34A853"/><path d="M13.417 0H2.285A2.285 2.285 0 0 0 0 2.285v.532L5.373 9.08 13.417 0z" fill="#EA4335"/><path d="M16 2.285A2.285 2.285 0 0 0 13.715 0h-.45l-8.35 6.476L15.7 14.842a2.27 2.27 0 0 0 .3-1.127V2.285z" fill="#4285F4"/><path d="M0 2.665v7.621c1.982-1.538 2.488-1.93 4.914-3.81L0 2.666z" fill="#FBBC05"/><circle fill="#FFF" cx="8" cy="6.526" r="4.421"/><circle fill="#4285F4" cx="8" cy="6.526" r="2.632"/></g></svg>