<svg viewBox="0 0 16 16" xmlns="http://www.w3.org/2000/svg"><g fill="none" fill-rule="evenodd"><path d="M8 16c3.314 0 6-2.768 6-6.182L8 3.636c-3.314 0-6 2.768-6 6.182C2 13.232 4.686 16 8 16z" fill="#0A8BD2"/><path d="M5 2.562c0-.31.256-.562.564-.562h1.872c.311 0 .564.252.564.57V3l1.875 5.66L5 9.817V2.562z" fill="#F7C438"/><path d="M8 1.57A.57.57 0 0 1 8.564 1h1.872c.311 0 .564.254.564.566v.752l1.496 2.864L11 9.818l-3-3.09V1.57z" fill="#0FD3B5"/><path d="M11 .556c0-.307.256-.556.564-.556h1.872c.311 0 .564.243.564.556v9.262h-3V.556z" fill="#0A8BD2"/><path d="M13.797 11.42L10.12 7.632l-4.242 4.37 3.675 3.788c2.065-.57 3.69-2.244 4.243-4.372z" fill-opacity=".1" fill="#000"/><ellipse fill="#FFF" cx="8" cy="9.818" rx="3" ry="3.091"/></g></svg>