<svg viewBox="0 0 16 16" xmlns="http://www.w3.org/2000/svg"><defs><radialGradient cx="10.539%" cy="6.915%" fx="10.539%" fy="6.915%" r="109.947%" gradientTransform="scale(1 .91949) rotate(53.091 .1 .072)" id="a"><stop stop-color="#1DDDBD" offset="0%"/><stop stop-color="#1ED9C0" offset="41.281%"/><stop stop-color="#2978FF" offset="100%"/></radialGradient><radialGradient cx="39.747%" cy="109.339%" fx="39.747%" fy="109.339%" r="67.879%" gradientTransform="matrix(-.22439 -.974 .96464 -.22657 -.568 1.728)" id="b"><stop stop-color="#FFF" offset="0%"/><stop stop-color="#FFF" stop-opacity="0" offset="100%"/></radialGradient><radialGradient cx="39.747%" cy="109.339%" fx="39.747%" fy="109.339%" r="67.891%" gradientTransform="matrix(-.22435 -.97382 .96104 -.22733 -.564 1.728)" id="c"><stop stop-color="#FFF" offset="0%"/><stop stop-color="#FFF" stop-opacity="0" offset="100%"/></radialGradient><radialGradient cx="39.747%" cy="109.339%" fx="39.747%" fy="109.339%" r="67.888%" gradientTransform="matrix(-.22436 -.97386 .96193 -.22715 -.565 1.729)" id="d"><stop stop-color="#FFF" offset="0%"/><stop stop-color="#FFF" stop-opacity="0" offset="100%"/></radialGradient><radialGradient cx="39.747%" cy="109.339%" fx="39.747%" fy="109.339%" r="67.883%" gradientTransform="matrix(-.22438 -.97393 .96336 -.22684 -.567 1.729)" id="e"><stop stop-color="#FFF" offset="0%"/><stop stop-color="#FFF" stop-opacity="0" offset="100%"/></radialGradient><radialGradient cx="39.747%" cy="109.339%" fx="39.747%" fy="109.339%" r="67.865%" gradientTransform="scale(-.99438 -1) rotate(76.955 1.375 -.501)" id="f"><stop stop-color="#FFF" offset="0%"/><stop stop-color="#FFF" stop-opacity="0" offset="100%"/></radialGradient><radialGradient cx="39.747%" cy="109.339%" fx="39.747%" fy="109.339%" r="67.849%" gradientTransform="matrix(-.2245 -.97443 .9735 -.2247 -.578 1.726)" id="g"><stop stop-color="#FFF" offset="0%"/><stop stop-color="#FFF" stop-opacity="0" offset="100%"/></radialGradient></defs><g fill="none" fill-rule="evenodd"><path d="M2.104 7.366a3.902 3.902 0 0 0-.092.072C.905 6.93.523 5.868.692 4.945c.302-1.654 2.414-3.328 4.794-2.42.047.016.112.043.157.063.249.11.108.035-.157-.066C5.372 1.31 6.1.476 6.984.16c1.584-.565 4.099.36 4.503 2.874.993-.703 2.082-.457 2.797.15 1.282 1.089 1.678 3.768-.298 5.375 1.1.509 1.489 1.546 1.32 2.468-.302 1.655-2.42 3.33-4.8 2.422.113 1.215-.605 2.083-1.488 2.399-1.583.565-4.086-.45-4.49-2.963-.994.701-2.093.536-2.807-.07-1.282-1.09-1.684-3.769.292-5.376l.091-.073z" fill="url(#a)"/><path d="M5.872 6.22l-.386-3.702c-2.38-.907-4.492.766-4.794 2.42-.169.923.213 1.985 1.32 2.493.79-.634 2.315-1.325 3.86-1.212z" fill="url(#b)" opacity=".65"/><path d="M5.523 11.896l-.385-3.697c-2.38-.908-4.5.78-4.801 2.435-.169.922.238 1.957 1.345 2.465.788-.636 2.225-1.284 3.841-1.203z" fill="url(#c)" opacity=".65" transform="rotate(-60 2.912 10.522)"/><path d="M10.264 15.032l-.366-3.69c-2.38-.908-4.51.752-4.812 2.407-.169.922.225 1.979 1.332 2.486.782-.632 2.28-1.296 3.846-1.203z" fill="url(#d)" opacity=".65" transform="rotate(-120 7.656 13.66)"/><path d="M15.344 12.496l-.365-3.69c-2.38-.906-4.499.768-4.8 2.423-.169.923.22 1.961 1.327 2.47.765-.63 2.194-1.285 3.838-1.203z" fill="url(#e)" opacity=".65" transform="rotate(180 12.742 11.125)"/><path d="M15.688 6.803l-.365-3.694c-2.38-.908-4.502.775-4.804 2.43-.169.922.164 1.989 1.27 2.496.388-.281.875-.601 1.452-.825a5.996 5.996 0 0 1 2.447-.407z" fill="url(#f)" opacity=".65" transform="rotate(120 13.083 5.445)"/><path d="M10.965 3.693l-.419-3.727C8.166-.94 6.108.775 5.806 2.43c-.168.923.19 1.971 1.297 2.479.77-.627 2.232-1.308 3.862-1.215z" fill="url(#g)" opacity=".65" transform="rotate(60 8.366 2.311)"/></g></svg>