<svg viewBox="0 0 16 16" xmlns="http://www.w3.org/2000/svg"><path fill="#FBBC05" d="M10.394 12.784l.036-2.299H9.065L5.875 16h2.731l1.824-3.154z"/><path fill="#34A853" d="M7.628 8h1.437v2.485L5.875 16H3z"/><path fill-opacity=".1" fill="#BF360C" d="M10.43 12.846v-2.361H9.065l-.335.579z"/><path fill-opacity=".1" d="M8.73 11.064l.335-.579.155-1.842L7.627 8l-.686 1.188z"/><path fill="#EA4335" d="M12.799 8.75a1.496 1.496 0 0 0 0-1.5L8.606 0H5.875l1.737 5.18 4.255 5.18.932-1.61z"/><path fill="#4285F4" d="M5.875 0H3l7.43 12.846 1.436-2.483.002-.003z"/></svg>