<svg viewBox="0 0 16 16" xmlns="http://www.w3.org/2000/svg"><g fill="none"><path d="M13.577 13.619A8.175 8.175 0 0 1 7.8 16 8.175 8.175 0 0 1 2 13.598l1.699-9.9C3.728 3.67 7.027 3.104 13.598 2A8.175 8.175 0 0 1 16 7.8c0 2.253-.91 4.295-2.381 5.777l-.042.042z" fill="#8CC349"/><path d="M2.381 2.423l.042-.042A8.175 8.175 0 0 1 8.2 0c2.254 0 4.296.91 5.779 2.381l.02.02L2.403 14l-.077-.076A8.174 8.174 0 0 1 0 8.2c0-2.254.91-4.296 2.381-5.778z" fill="#258FCF"/><path fill="#E0E0E0" d="M6 4.905L6.858 7 7 6.813l-.368-2.737L6 4v.905z"/><path d="M12.11 15L9 12.098 9.585 8l1.318 1.26.137-.083 1.37 1.32 1.787-1.448L16 10.733a7.97 7.97 0 0 1-1.98 2.913l-.044.04A8.59 8.59 0 0 1 12.109 15z" fill-opacity=".1" fill="#000"/><path d="M6.203 3.446l1-1.07c.293-.314.639-.367.7-.374a.199.199 0 0 1 .172.062.23.23 0 0 1 .059.184 1.367 1.367 0 0 1-.35.75L5.875 5.04 4.591 6.29l.127.77-.205.219-.436-.933-.872-.467.205-.22.72.136L5.293 4.42 3 3.1l.205-.223 2.998.57zm4.417 6.585c-.312 0-.565-.271-.565-.605 0-.334.253-.605.565-.605.312 0 .565.271.565.605 0 .334-.253.605-.565.605zm2.742-1.393c.324 0 .638.281.638.629V12h-.524v-.843H9.721V12h-.524V7.792h.524v2.525h1.834v-1.68h1.807z" fill="#F5F5F5"/></g></svg>