<svg viewBox="0 0 16 16" xmlns="http://www.w3.org/2000/svg" xmlns:xlink="http://www.w3.org/1999/xlink"><defs><circle id="a" cx="8.16" cy="7.82" r="3.52"/></defs><g fill="none" fill-rule="evenodd"><path d="M1 1.5c0-.276.252-.5.563-.5h1.875c.31 0 .562.224.562.5V3H1V1.5z" fill="#9E9E9E"/><path d="M14.72 2H1.28C.573 2 0 2.597 0 3.333v9.334C0 13.403.573 14 1.28 14h13.44c.707 0 1.28-.597 1.28-1.333V3.333C16 2.597 15.427 2 14.72 2z" fill="#E0E0E0"/><circle fill="#9E9E9E" cx="14.5" cy="3.5" r="1"/><path d="M8.413 14l-3.277-3.277 5.928-5.927L16 9.733v2.934c0 .736-.573 1.333-1.28 1.333H8.413z" fill-opacity=".1" fill="#000"/><path d="M8.1 3.568a4.192 4.192 0 1 1 0 8.385 4.192 4.192 0 0 1 0-8.385z" fill="#F5F5F5"/><mask id="b" fill="#fff"><use xlink:href="#a"/></mask><path d="M12.736 7.82c0 1.18-.447 2.255-1.18 3.067L8.16 7.82V6.412l4.257-.27a4.57 4.57 0 0 1 .319 1.677z" fill="#3F51B5" fill-rule="nonzero" mask="url(#b)"/><path d="M7.203 12.295a4.578 4.578 0 0 0 4.353-1.408L9.38 7.116l-1.22.704-.957 4.475z" fill="#4285F4" fill-rule="nonzero" mask="url(#b)"/><path d="M3.806 9.228a4.583 4.583 0 0 0 3.397 3.067L9.38 8.524 8.16 7.82 3.806 9.228z" fill="#34A853" fill-rule="nonzero" mask="url(#b)"/><path d="M4.764 4.753a4.561 4.561 0 0 0-1.18 3.067c0 .491.078.964.222 1.408H8.16V7.82L4.764 4.753z" fill="#FBBC05" fill-rule="nonzero" mask="url(#b)"/><path d="M8.16 7.82l-.88-.763 1.837-3.712a4.578 4.578 0 0 0-4.353 1.408L6.94 8.524l1.22-.704z" fill="#FB8C00" fill-rule="nonzero" mask="url(#b)"/><path d="M12.514 6.412H8.16V7.82l-1.22-.704 2.177-3.77a4.584 4.584 0 0 1 3.397 3.066z" fill="#EA4335" fill-rule="nonzero" mask="url(#b)"/><circle fill="#EEE" fill-rule="nonzero" mask="url(#b)" cx="8.16" cy="7.82" r="1.408"/></g></svg>