<svg viewBox="0 0 16 16" xmlns="http://www.w3.org/2000/svg"><g fill="none"><path d="M10.183 4.838l1.99-.417-.017-1.523A6.291 6.291 0 0 0 8 1.34c-2.886 0-5.32 1.93-6.042 4.548.152-.104 1.868.244 1.868.244s1.536-.953 1.606-.939A3.498 3.498 0 0 1 8 4.077a3.5 3.5 0 0 1 2.183.76z" fill="#EA4335"/><path d="M14.043 5.891a6.153 6.153 0 0 0-1.888-2.994l-1.972 1.94a3.396 3.396 0 0 1 1.295 2.661v.342c.96 0 1.74.768 1.74 1.71 0 .944-.78 1.711-1.74 1.711H8l-1.04 1.435L8 13.998h3.478c2.493 0 4.522-1.995 4.522-4.447a4.424 4.424 0 0 0-1.957-3.66z" fill="#4285F4"/><path d="M4.522 13.998h3.475v-2.737H4.522c-.256 0-.498-.055-.717-.153l-2.066.155.05 1.829c.76.568 1.707.906 2.733.906z" fill="#34A853"/><path d="M4.522 5.104C2.029 5.104 0 7.099 0 9.55c0 1.444.703 2.73 1.791 3.542l2.017-1.984A1.711 1.711 0 0 1 2.783 9.55c0-.943.78-1.71 1.739-1.71.704 0 1.311.414 1.584 1.008l2.017-1.984a4.54 4.54 0 0 0-3.601-1.761z" fill="#FBBC05"/></g></svg>