<svg viewBox="0 0 16 16" xmlns="http://www.w3.org/2000/svg"><g fill="none" fill-rule="evenodd"><path d="M15 6.91C15 3.093 11.864 0 8 0S1 3.094 1 6.91c0 3.614 3.34 6.545 7 6.545V16c4.252-2.13 7-5.555 7-9.09z" fill="#00897B" fill-rule="nonzero"/><path d="M7.334 13.422c.22.022.443.033.666.033V16c4.252-2.13 7-5.555 7-9.09a6.94 6.94 0 0 0-.013-.423L13 4.5s-.185.602-.426 1.426l-1.75-1.75-.576 1.974-7.072 3.674 3.503 3.504c.216.041.434.073.655.094z" fill-opacity=".1" fill="#000" fill-rule="nonzero"/><path d="M3 7v2.393c0 .335.266.607.601.607H10.4a.601.601 0 0 0 .6-.605V7.5l2 2V7L6.75 5.8 3 7z" fill="#F5F5F5"/><path d="M3 4.607C3 4.272 3.266 4 3.601 4H10.4c.332 0 .601.268.601.605V6.5l2-2V7H3V4.607z" fill="#E0E0E0"/></g></svg>