<svg viewBox="0 0 16 16" xmlns="http://www.w3.org/2000/svg"><g fill="none"><path d="M12.8 9.883a.4.4 0 0 1-.4.396H3.956a.4.4 0 0 1-.4-.396V1.596a.4.4 0 0 1 .4-.396H12.4a.4.4 0 0 1 .399.396v8.287z" fill="#0C9D58"/><path d="M5.605 9.628c-.057.213.057.43.254.483l7.823 2.104c.196.053.403-.078.46-.291l1.843-6.879c.057-.212-.057-.43-.253-.482L7.908 2.459c-.196-.053-.403.078-.46.291L5.605 9.628z" fill="#EA4335"/><path d="M12.8 3.33v.442l-3.165-.85 3.165.408zM8.33 1.632c.185-.086.411.007.505.207v.005L3.537 3.772l4.794-2.14zM14.223 7.5l.412 2.5-.412 1.536V7.5zM9.635 2.925l.387.104.247 1.638-.634-1.742z" fill-opacity=".1" fill="#000"/><path d="M11.766 8.781c.076.207-.02.433-.21.503L3.301 12.29c-.19.07-.409-.043-.484-.25L.38 5.347c-.075-.207.02-.433.21-.503l8.255-3.005c.191-.07.41.043.485.25l2.435 6.692z" fill="#FFC107"/><path d="M14.222 13.6a.4.4 0 0 1-.4.4H2.533a.4.4 0 0 1-.4-.4V5.067c0-.22.18-.4.4-.4h11.29c.22 0 .4.18.4.4V13.6z" fill="#4285F4"/><path d="M12.067 8.044H8.689v-.888h3.378c.097 0 .177.08.177.177v.534c0 .097-.08.177-.177.177zm0 3.378H8.689v-.889h3.378c.097 0 .177.08.177.178v.533c0 .098-.08.178-.177.178zm.533-1.689H8.689v-.889H12.6c.098 0 .178.08.178.178v.534c0 .097-.08.177-.178.177zm-6.933-.8h2.009c.02.13.033.265.033.405 0 1.218-.81 2.084-2.042 2.084a2.134 2.134 0 0 1 0-4.266 2.05 2.05 0 0 1 1.427.555l-.609.609A1.16 1.16 0 0 0 5.667 8c-.699 0-1.265.59-1.265 1.289s.566 1.289 1.265 1.289c.625 0 1.055-.354 1.15-.843h-1.15v-.802z" fill="#FFF"/></g></svg>