<svg viewBox="0 0 16 16" xmlns="http://www.w3.org/2000/svg"><g fill="none"><circle stroke="#E8EAED" stroke-width=".5" fill="#FFF" cx="8" cy="8" r="8"/><path d="M6.204 8.04c0-.125-.011-.245-.031-.36H4.545v.674h.934a.8.8 0 0 1-.345.525v.43h.554c.327-.3.516-.744.516-1.27z" fill="#4285F4"/><path d="M4.545 9.727c.467 0 .858-.154 1.143-.418l-.554-.43a1.042 1.042 0 0 1-.59.166c-.45 0-.833-.304-.97-.714h-.572v.444c.285.564.868.952 1.543.952z" fill="#34A853"/><path d="M3.575 8.33a1.03 1.03 0 0 1 0-.66v-.445h-.572a1.716 1.716 0 0 0 0 1.55l.572-.444z" fill="#FBBC05"/><path d="M4.545 6.955a.94.94 0 0 1 .664.259l.492-.491c-.3-.28-.69-.45-1.156-.45-.675 0-1.258.388-1.541.952l.571.444c.137-.41.52-.714.97-.714z" fill="#EA4335"/><path d="M7.655 8.346v1.2h-.382v-3h1.015a.91.91 0 0 1 .657.261.85.85 0 0 1 .275.638.846.846 0 0 1-.275.643.907.907 0 0 1-.657.257l-.633.001zm2.52-.943c.283 0 .507.076.67.23.164.153.246.364.246.632v1.28h-.366v-.291h-.017c-.158.236-.369.355-.633.355a.813.813 0 0 1-.563-.203.653.653 0 0 1-.227-.507c0-.214.08-.384.24-.51.159-.127.371-.19.638-.19.227 0 .414.041.562.126v-.09a.445.445 0 0 0-.159-.344.537.537 0 0 0-.37-.142.584.584 0 0 0-.507.275l-.337-.216c.185-.27.46-.405.823-.405zm3.007.052l-1.277 2.984h-.396l.475-1.044-.84-1.94h.416l.607 1.488h.008l.591-1.488h.416zM9.68 8.907c0 .102.043.187.127.254a.464.464 0 0 0 .297.102.606.606 0 0 0 .431-.182.572.572 0 0 0 .19-.426c-.12-.096-.286-.144-.5-.144a.639.639 0 0 0-.389.114c-.104.076-.156.17-.156.282zm-2.026-1.99v1.057h.641c.153 0 .28-.052.38-.157a.512.512 0 0 0 .153-.372c0-.14-.05-.263-.154-.368a.496.496 0 0 0-.379-.16h-.64z" fill="#5F6368"/></g></svg>