<svg viewBox="0 0 16 16" xmlns="http://www.w3.org/2000/svg"><g fill="none"><path d="M1.884 14a1.884 1.884 0 0 1 0-3.768h9.418v3.767H1.884z" fill="#EA4335"/><path d="M2.647 7.952a1.884 1.884 0 0 1 2.267-3.01l7.522 5.67-2.267 3.008-7.522-5.668z" fill="#FBBC05"/><path d="M6.747 3.66a1.884 1.884 0 1 1 3.603-1.102l2.754 9.007L9.5 12.666 6.747 3.66z" fill="#34A853"/><path d="M12.255 2.558a1.884 1.884 0 0 1 3.602 1.101l-2.753 9.007A1.884 1.884 0 1 1 9.5 11.565l2.754-9.007z" fill="#4285F4"/><path d="M13.155 2.833a.942.942 0 1 1 1.802.55.942.942 0 0 1-1.802-.55zm-2.753 9.007a.942.942 0 1 1 1.801.551.942.942 0 0 1-1.801-.55zM7.648 3.384a.942.942 0 1 1 1.801-.55.942.942 0 0 1-1.801.55zM3.213 7.2a.942.942 0 1 1 1.134-1.505A.942.942 0 0 1 3.213 7.2zm-1.33 5.857a.942.942 0 1 1 0-1.883.942.942 0 0 1 0 1.883z" fill="#FFF"/></g></svg>