<svg viewBox="0 0 16 16" xmlns="http://www.w3.org/2000/svg"><g fill="none"><path d="M14.889 16H6V7h8.889C15.503 7 16 7.483 16 8.08v6.84c0 .597-.497 1.08-1.111 1.08z" fill="#EEE"/><path d="M11.01 7H6v9h8.889c.614 0 1.111-.484 1.111-1.08v-3.07L11.01 7z" fill-opacity=".1" fill="#000"/><path d="M6.003 11.84L4.912 8.675l1.09-2.492 1.203-2.658 2.11-.659a8.741 8.741 0 0 1 1.616 4.044c.046.355-1.732 3.436-1.732 3.436L6.003 11.84z" fill="#8BC34A"/><path d="M6.003 6.183l-.795-2.119-1.75-.43-1.27.002a8.702 8.702 0 0 0-1.185 4.359l5 3.845V6.183z" fill="#0B8142"/><path d="M1.003 7.995c0 3.415 2.009 6.4 4.999 8.005l.819-2.142-.818-2.018-4.92-4.995c-.05.377-.08.76-.08 1.15z" fill="#0B552B"/><path d="M9.316 2.866L6.003 6.183l-.91-2.846L6.004 0a9.706 9.706 0 0 1 3.313 2.866z" fill="#C6FF00"/><path d="M3.456 3.636l2.547 2.547V0a9.796 9.796 0 0 0-2.547 1.94v1.696z" fill="#57BB8A"/><path d="M11.003 7.995c0 3.415-2.01 6.4-5 8.005v-4.365l-.001.205s4.926-4.952 4.93-4.93c.045.355.07.718.07 1.085z" fill="#0F9D58"/></g></svg>