<svg viewBox="0 0 16 16" xmlns="http://www.w3.org/2000/svg"><defs><linearGradient x1="50%" y1="18.451%" x2="50%" y2="100%" id="a"><stop stop-color="#F2F6F7" offset="0%"/><stop stop-color="#D3E1E9" offset="100%"/></linearGradient></defs><g fill="none"><rect fill="#74D0EB" width="16" height="16" rx="1.25"/><ellipse fill="#2E6C88" cx="7.809" cy="13.264" rx="4.672" ry="1"/><ellipse fill="#2E6C88" opacity=".6" cx="9.501" cy="13.012" rx="1.497" ry="1"/><ellipse fill="#2E6C88" opacity=".6" cx="5.667" cy="13.012" rx="1.497" ry="1"/><path d="M7.418 11.476c-1.4 0-3.395-.185-4.558-1.783a.283.283 0 0 1-.025-.288.264.264 0 0 1 .237-.152c.86 0 .97-.662 1.05-1.753.02-.28.04-.544.085-.785.15-.801.594-1.522 1.282-2.085a4.474 4.474 0 0 1 2.183-.957 4.12 4.12 0 0 1 .569-.04c1.356 0 2.677.685 3.446 1.786.692.99.866 2.186.49 3.367-.332 1.047-1.253 1.997-2.346 2.42-.615.237-1.305.27-1.959.27h-.268a11.171 11.171 0 0 0-.186 0z" fill="url(#a)"/><ellipse stroke="#979797" stroke-width=".5" fill="#D8D8D8" cx="5.776" cy="12.071" rx="1" ry="1"/><ellipse stroke="#979797" stroke-width=".5" fill="#D8D8D8" cx="9.599" cy="12.071" rx="1" ry="1"/><path d="M7.638 6.712c0 .304-.239.55-.534.55a.542.542 0 0 1-.533-.55c0-.304.239-.55.533-.55.295 0 .534.246.534.55m2.446 0c0 .304-.239.55-.533.55a.542.542 0 0 1-.534-.55c0-.304.24-.55.534-.55.294 0 .533.246.533.55M8.29 9.617c-.894 0-1.698-.603-1.846-1.392a.282.282 0 0 1 .218-.33c.149-.03.293.07.321.223.087.464.626.953 1.346.933.749-.02 1.243-.481 1.345-.926a.274.274 0 0 1 .33-.21.283.283 0 0 1 .204.34c-.083.362-.31.7-.64.947a2.117 2.117 0 0 1-1.279.415" fill="#3D3D3D"/><path d="M12.805 7.009A4.14 4.14 0 0 0 12.1 5.29a4.672 4.672 0 0 0-3.787-1.957 4.54 4.54 0 0 0-.626.044A4.91 4.91 0 0 0 5.296 4.42c-.764.623-1.257 1.424-1.426 2.316-.05.266-.072.56-.093.843-.032.444-.066.904-.202 1.204-.094.205-.234.342-.61.342a.546.546 0 0 0-.49.313.58.58 0 0 0 .052.592c.568.779 1.31 1.25 2.091 1.534-.036.11-.056.23-.056.352 0 .62.486 1.121 1.086 1.121.585 0 1.06-.478 1.083-1.075.255.014 1.467.017 1.602.013.03.592.503 1.062 1.083 1.062.6 0 1.086-.502 1.086-1.12 0-.142-.027-.276-.073-.4a4.647 4.647 0 0 0 1.178-.85 4.116 4.116 0 0 0 1.038-1.653 4.278 4.278 0 0 0 .16-2.006zm-2.7 4.042a1.06 1.06 0 0 0-.689-.254c-.421 0-.786.248-.966.61-.183.008-1.546.003-1.845-.018a1.081 1.081 0 0 0-.957-.592c-.276 0-.527.107-.718.281-.742-.247-1.442-.67-1.966-1.387 1.548 0 1.243-1.786 1.443-2.845.305-1.615 1.852-2.7 3.353-2.91a4.13 4.13 0 0 1 .552-.038c2.467 0 4.663 2.274 3.813 4.94-.313.985-1.14 1.797-2.02 2.213z" fill="#3D3D3D"/><path d="M9.416 12.287a.364.364 0 0 1-.358-.37c0-.204.16-.37.358-.37.198 0 .358.166.358.37 0 .205-.16.37-.358.37zm-3.768 0a.364.364 0 0 1-.358-.37c0-.204.16-.37.358-.37.198 0 .358.166.358.37 0 .205-.16.37-.358.37z" fill="#515252"/></g></svg>