<svg viewBox="0 0 16 16" xmlns="http://www.w3.org/2000/svg"><g fill="none"><path d="M11.64 2.314L8.36 4.178a.728.728 0 0 1-.72 0L4.36 2.314A.745.745 0 0 0 4 2.2a.745.745 0 0 0-.36.114L.369 4.173A.728.728 0 0 0 0 4.805V8.96c0 .262.14.503.368.633l7.273 4.132a.748.748 0 0 0 .359.113c.124 0 .248-.05.36-.113l7.272-4.132A.728.728 0 0 0 16 8.959V4.805a.73.73 0 0 0-.368-.632l-3.273-1.86A.748.748 0 0 0 12 2.2a.745.745 0 0 0-.36.114z" fill="#EA4335"/><path fill="#FFF" d="M12.09 6.655l3.546-2.091-3.545-2z"/></g></svg>