<svg viewBox="0 0 16 16" xmlns="http://www.w3.org/2000/svg"><g fill="none"><path d="M15.993 9.362c-.025-.796-.254-3.83-.305-4.2a8.19 8.19 0 0 0-.487-1.882c-.146-.376-.37-.758-.928-1.168-.712-.525-1.288-.612-2.019-.612-.51 0-.857.03-1.082.047a46 46 0 0 0-5.11.625c-1.426.26-2.501.55-3.488.942-.737.293-1.313.662-1.76 1.131-.728.763-.919 1.464-.76 2.307.215 1.143.563 3.788.58 3.932.078.701.197 1.525.477 2.315.31.873.882 1.403 1.752 1.617.563.14 1.143.093 1.896-.089a63.408 63.408 0 0 1 3.068-.677c1.748-.33 3.385-.418 4.094-.463.315-.02 1.078-.083 1.142-.09.172-.02.4-.063.621-.113.585-.132 1.011-.44 1.412-.83.193-.19.433-.499.578-.807.316-.669.338-1.379.32-1.985z" fill="#EA4335"/><path d="M10.76 7.455c-.174.126-3.38 2.553-3.822 2.805-.16-.605-.63-3.699-.67-4.433.686.084 3.609 1.143 4.492 1.628z" fill="#FFF"/></g></svg>