<svg viewBox="0 0 16 16" xmlns="http://www.w3.org/2000/svg"><g fill="none" fill-rule="evenodd"><path d="M13.703 2.756a.52.52 0 0 1 .636.225l1.177 2.037a.525.525 0 0 1-.123.663l-1.117.863c-.194.15-.35.473-.35.706v1.5c0 .24.155.555.35.706l1.117.862a.52.52 0 0 1 .123.663l-1.177 2.037a.525.525 0 0 1-.636.224l-1.304-.535a1.023 1.023 0 0 0-.786.05l-1.3.75c-.208.12-.403.411-.436.656l-.189 1.398a.52.52 0 0 1-.512.439H6.823a.525.525 0 0 1-.512-.439l-.189-1.398a1.022 1.022 0 0 0-.435-.656l-1.3-.75a1.003 1.003 0 0 0-.786-.05l-1.305.535a.52.52 0 0 1-.636-.224L.484 10.981a.525.525 0 0 1 .124-.663l1.115-.862c.194-.15.35-.473.35-.706v-1.5c0-.24-.154-.555-.35-.706L.608 5.681a.52.52 0 0 1-.124-.663L1.66 2.982a.525.525 0 0 1 .636-.224l1.305.535c.226.093.584.067.786-.05l1.3-.75c.208-.12.402-.411.435-.656L6.311.439A.52.52 0 0 1 6.823 0h2.353c.25 0 .48.194.512.439l.189 1.398c.032.242.234.54.436.656l1.3.75c.208.12.557.143.786.05l1.304-.537z" fill="#EA4335"/><path fill="#FFF" fill-rule="nonzero" d="M6 10.495l4.34-2.497L6 5.5z"/></g></svg>