<?xml version="1.0" encoding="UTF-8" standalone="no"?>
<svg width="15px" height="19px" viewBox="0 0 15 19" version="1.1" xmlns="http://www.w3.org/2000/svg" xmlns:xlink="http://www.w3.org/1999/xlink" xmlns:sketch="http://www.bohemiancoding.com/sketch/ns">
    <!-- Generator: Sketch 3.3.2 (12043) - http://www.bohemiancoding.com/sketch -->
    <title>Oval 58 + Path 3 + Path 4</title>
    <desc>Created with Sketch.</desc>
    <defs></defs>
    <g id="Page-1" stroke="none" stroke-width="1" fill="none" fill-rule="evenodd" sketch:type="MSPage">
        <g id="Artboard-38" sketch:type="MSArtboardGroup" transform="translate(-914.000000, -392.000000)">
            <g id="Group" sketch:type="MSLayerGroup" transform="translate(873.000000, 350.000000)">
                <g id="Oval-58-+-Path-3-+-Path-4" transform="translate(41.000000, 42.000000)" sketch:type="MSShapeGroup">
                    <path d="M12.3185251,6.54300495 C12.3185251,6.54300495 12.2336998,6.45018439 12.554085,6.73815134 C14.3369128,8.34058361 15.2462925,10.740827 14.7467467,13.1890285 C13.9686733,17.0022532 10.0671894,19.4878334 6.03253862,18.7407272 C1.99788782,17.9936211 -0.642089749,14.2967426 0.135983683,10.4835179 C0.657128056,7.92946516 2.57948488,5.97101522 5.00455235,5.18059087 C5.54330275,5.04309882 5.79390506,5.32592757 5.56879374,5.80991251 C5.56879374,5.80991251 3.77313599,9.5471669 3.45661164,11.0984067 C3.07238621,12.9814396 4.17485656,15.1397676 6.67291433,15.602339 C9.1709721,16.0649105 11.0418933,14.4571727 11.4261187,12.5741397 C11.7426431,11.0229 11.5473547,6.91697721 11.5473547,6.91697721 C11.5275057,6.38618701 11.8717431,6.20956057 12.3185251,6.54300495 L12.3185251,6.54300495 Z" id="Oval-58" fill="#F8FDFF"></path>
                    <path d="M7.1710315,13.4601909 C8.08799759,13.6299877 8.97469847,13.0650831 9.15153334,12.1984412 C9.32836821,11.3317992 8.72837331,10.4915995 7.81140722,10.3218027 C6.89444113,10.1520058 6.00774025,10.7169104 5.83090538,11.5835524 C5.65407051,12.4501944 6.25406541,13.290394 7.1710315,13.4601909 L7.1710315,13.4601909 Z" id="Path-3" fill="#00BAFE"></path>
                    <path d="M8.34933052,8.51982018 C9.44968983,8.72728106 9.72153015,8.55094661 9.93373199,7.49206769 C10.1459338,6.43318877 10.0567227,-3.64153152e-14 10.0567227,-3.64153152e-14 C10.0567227,-3.64153152e-14 7.48943147,5.93233392 7.27722963,6.99121284 C7.06502778,8.05009175 7.24897121,8.31235931 8.34933052,8.51982018 L8.34933052,8.51982018 Z" id="Path-4" fill="#00BAFE"></path>
                </g>
            </g>
        </g>
    </g>
</svg>