<svg viewBox="0 0 48 48" xmlns="http://www.w3.org/2000/svg"><g fill="none" fill-rule="evenodd"><path d="M34.049 44H13.951c-.827 0-1.83-.577-2.246-1.297L1.655 25.297c-.413-.716-.415-1.874 0-2.594l10.05-17.406C12.118 4.58 13.12 4 13.95 4h20.098c.827 0 1.83.577 2.246 1.297l10.05 17.406c.413.716.415 1.874 0 2.594l-10.05 17.406c-.207.358-.56.682-.966.917-.406.235-.864.38-1.28.38z" fill="#4285F4"/><path d="M30.293 44h3.756c.416 0 .874-.145 1.28-.38.406-.235.76-.559.966-.917l7.386-12.792-18.706-18.706-3.155 3.629 2 2L19 19l-2.034 4.78-2-2-3.82 3.074L30.293 44z" fill-opacity=".1" fill="#000"/><path d="M26.154 14.75A9.529 9.529 0 0 0 24 14.545a9.527 9.527 0 0 0-2.179.29l1.033-3.356a.723.723 0 0 1 .652-.478h.99a.71.71 0 0 1 .652.478l1.007 3.273zm7.267 7.149l3.1.954a.71.71 0 0 1 .479.652v.99a.502.502 0 0 1-.496.505h-2.887a9.599 9.599 0 0 0-.196-3.101zM14.712 25h-3.216a.493.493 0 0 1-.496-.505v-.99c0-.279.215-.571.478-.652l3.455-1.063a9.515 9.515 0 0 0-.22 3.21zM24 32a8 8 0 1 1 0-16 8 8 0 0 1 0 16zm0-2a6 6 0 1 0 0-12 6 6 0 0 0 0 12zm-2.121-3.879a3 3 0 0 1 4.243-4.243l.706-.706a4 4 0 1 1-5.657 5.657l.708-.708zM24 26a2 2 0 1 0 0-4 2 2 0 0 0 0 4z" fill="#FFF"/></g></svg>