<svg viewBox="0 0 16 16" xmlns="http://www.w3.org/2000/svg"><g fill="none"><path d="M6.91.455l2.18 2.182L2.609 9.1a1.529 1.529 0 0 1-2.16-2.16L6.908.454zm-.005 6.461L9.084 9.1 5.79 12.377c-.601.6-1.553.596-2.154-.004-.6-.601-.624-1.57-.022-2.17l3.29-3.287z" fill="#4285F4"/><path d="M15.554 6.914a1.528 1.528 0 0 1 0 2.157h.001l-6.474 6.485-2.172-2.191 6.488-6.454h.001a1.524 1.524 0 0 1 2.156.003zm-3.189-3.278a1.548 1.548 0 0 1 0 2.189l-.039.035-3.235 3.232L6.909 6.91l3.236-3.234.036-.04a1.542 1.542 0 0 1 2.184 0z" fill="#FBBC05"/><path d="M7.946 16a1.545 1.545 0 1 1 .108 0h-.108zM9.092 2.637A1.544 1.544 0 1 1 6.909.454a1.543 1.543 0 1 1 2.183 2.184zM9.09 9.092a1.541 1.541 0 0 1-2.184.013A1.554 1.554 0 0 1 6.91 6.91a1.545 1.545 0 0 1 2.186.006c.605.605.6 1.572-.004 2.176z" fill="#34A853"/></g></svg>