<svg viewBox="0 0 16 16" xmlns="http://www.w3.org/2000/svg"><g fill="none"><path d="M9.086 1.345a2.62 2.62 0 0 0-3.556.941L.342 11.217l4.507 2.527 5.19-8.888a2.553 2.553 0 0 0-.953-3.511z" fill="#FBBC05"/><path d="M1.305 14.718a2.591 2.591 0 0 1-.962-3.535c.715-1.25 2.313-1.71 3.55-.99 1.237.72 1.691 2.287.976 3.537-.714 1.249-2.326 1.71-3.564.988z" fill="#34A853"/><path d="M11.198 6.762l-2.574 4.446a2.563 2.563 0 0 0 .943 3.507 2.577 2.577 0 0 0 3.515-.94l2.573-4.446a2.565 2.565 0 0 0-.942-3.507 2.577 2.577 0 0 0-3.515.94z" fill="#4285F4"/></g></svg>