<svg viewBox="0 0 16 16" xmlns="http://www.w3.org/2000/svg"><g fill="none"><ellipse fill="#03A9F4" cx="8" cy="8" rx="7.5" ry="7.636"/><path d="M8 .364C3.858.364.5 3.783.5 8h15C15.5 3.783 12.142.364 8 .364z" fill="#039BE5"/><path d="M6.781 14.545l-2.604-2.652L5.353 4 4.177 2.802l7.752-1.307A7.662 7.662 0 0 1 15.5 8a7.66 7.66 0 0 1-3.571 6.505l-5.148.04z" fill-opacity=".1" fill="#000"/><path d="M11.571 0c.197 0 .358.164.358.364v2.181c0 .2-.161.364-.358.364H4.43a.361.361 0 0 1-.358-.364V.364c0-.2.161-.364.358-.364h7.142zm0 4c.197 0 .358.164.358.364v7.272c0 .2-.161.364-.358.364H4.43a.361.361 0 0 1-.358-.364V4.364c0-.2.161-.364.358-.364h7.142zm0 9.09c.197 0 .358.165.358.365v2.181c0 .2-.161.364-.358.364H4.43a.361.361 0 0 1-.358-.364v-2.181c0-.2.161-.364.358-.364h7.142z" fill="#EEE"/></g></svg>