<svg viewBox="0 0 16 16" xmlns="http://www.w3.org/2000/svg"><g fill="none"><path d="M15.68 12.317c-.197.197-.47.32-.77.32H1.091c-.6 0-1.091-.49-1.091-1.09V2.09C0 1.491.49 1 1.091 1H14.91c.6 0 1.091.49 1.091 1.091v9.455c0 .3-.123.573-.32.77z" fill="#03A9F4"/><path d="M16.001 11.546V9.864l-3.887-3.886h-7.75v6.66H14.91c.6 0 1.091-.492 1.091-1.092z" fill-opacity=".1" fill="#000"/><path d="M16.001 2.091v4.728H0V2.09C0 1.491.49 1 1.091 1H14.91c.6 0 1.091.49 1.091 1.091z" fill="#039BE5"/><path d="M8 4.273A5.818 5.818 0 1 0 8 15.91 5.818 5.818 0 1 0 8 4.273zm0 8.364a2.546 2.546 0 1 1 .001-5.092 2.546 2.546 0 0 1 0 5.092z" fill="#EEE"/><path d="M8 14.819l1.091-1.091H6.91L8 14.819zm-4.727-4.728l1.09 1.091V9l-1.09 1.091zM8 5.364l-1.09 1.09h2.18L8 5.364zm4.728 4.727l-1.09-1.09v2.181l1.09-1.09z" fill="#BDBDBD"/></g></svg>