<svg viewBox="0 0 16 16" xmlns="http://www.w3.org/2000/svg" xmlns:xlink="http://www.w3.org/1999/xlink"><g transform="translate(2.382 4.545)" fill="#FBBC05"><use xlink:href="#path0_fill"/><use xlink:href="#path1_fill"/></g><use xlink:href="#path2_fill" transform="translate(2.824 11.636)" fill="#34A853"/><use xlink:href="#path3_fill" transform="translate(3.444 1.78)" fill="#EA4335"/><use xlink:href="#path4_fill" transform="translate(2.2 5.58)" fill="#4285F4"/><use xlink:href="#path5_fill" transform="translate(2.2 8.114)" fill="#EEE"/><use xlink:href="#path6_fill" transform="translate(2.401 3.844)" fill="#EEE"/><use xlink:href="#path7_fill" transform="translate(3.597 13.562)" fill="#EEE"/><use xlink:href="#path8_fill" transform="translate(4.103)" fill="#EEE"/><defs><path id="path0_fill" d="M0 5.273h11.273l-.364 1.818H.364L0 5.273z"/><path id="path1_fill" d="M1.636 0h7.819l.181 2h-8V0z"/><path id="path2_fill" d="M.774 1.926c1.067 1.428 2.65.438 4.42.438s3.354.99 4.421-.438L10.39.62c-.333 0-2.83-.627-5.195-.62C2.7.008.332.65 0 .62l.774 1.306z"/><path id="path3_fill" d="M8.49 1.455C7.454-.368 6.08.04 4.573.04 3.066.039 1.692-.368.659 1.455L0 2.774c4.756-.372 6.756.174 9.148 0l-.659-1.319z"/><path id="path4_fill" d="M11.632 3.794l-.197-1.584-.949-1.245s-2.015.546-2.304-.181c0 0-1.598.219-1.637.181l.364.585L4.727.784c-.08.077-1.01.077-1.09 0L2.363.965c-.055 0-1.567-2.172-1.455 0L.201 2.21.004 3.794C.003 3.852 0 3.912 0 3.968c0 .917 1.786-.409 2.182.452 1.428.445.339-.182 2.273-.182 3.545-.373 4.117.445 5.545 0 .396-.86 1.636.647 1.636-.27 0-.056-.002-.116-.004-.174z"/><path id="path5_fill" d="M11.632 1.26L10.342 0 8.979 1.33a.207.207 0 0 1-.29 0L7.327 0 5.963 1.33a.208.208 0 0 1-.29 0L4.31 0 2.947 1.33a.207.207 0 0 1-.29 0L1.296 0 .005 1.26A3.33 3.33 0 0 0 0 1.433C0 2.35.228 3.28.624 4.142c1.428.445 3.26.705 5.194.705 1.934 0 3.766-.26 5.195-.705.395-.86.623-1.791.623-2.708 0-.056-.002-.116-.004-.175zM1.188 3.415a.79.79 0 0 1-.8-.781.79.79 0 0 1 .8-.78c.442 0 .8.349.8.78a.79.79 0 0 1-.8.78zm3.087 0a.79.79 0 0 1-.8-.781.79.79 0 0 1 .8-.78c.441 0 .8.349.8.78a.79.79 0 0 1-.8.78zm3.087 0a.79.79 0 0 1-.8-.781.79.79 0 0 1 .8-.78c.442 0 .8.349.8.78a.79.79 0 0 1-.8.78zm3.087 0a.79.79 0 0 1-.8-.781.79.79 0 0 1 .8-.78c.442 0 .8.349.8.78a.79.79 0 0 1-.8.78z"/><path id="path6_fill" d="M1.238 3.02l1.363 1.33 1.364-1.33a.208.208 0 0 1 .289 0l1.363 1.33 1.364-1.33a.208.208 0 0 1 .289 0l1.363 1.33 1.363-1.33a.214.214 0 0 1 .289 0l.95.926A16.126 16.126 0 0 0 10.19.709C9.002.267 7.367 0 5.617 0S2.232.267 1.043.71A16.104 16.104 0 0 0 0 3.945l.95-.927a.214.214 0 0 1 .288 0zM8.613.807c.442 0 .8.35.8.781a.79.79 0 0 1-.8.78.79.79 0 0 1-.8-.78.79.79 0 0 1 .8-.78zm-2.996 0c.442 0 .8.35.8.781a.79.79 0 0 1-.8.78.79.79 0 0 1-.8-.78.79.79 0 0 1 .8-.78zm-2.996 0c.442 0 .8.35.8.781a.79.79 0 0 1-.8.78.79.79 0 0 1-.8-.78.79.79 0 0 1 .8-.78z"/><path id="path7_fill" d="M0 0c1.067 1.429 2.65 2.438 4.42 2.438 1.771 0 3.354-1.01 4.422-2.438-1.318.297-2.83.463-4.421.463C2.829.463 1.318.297 0 0z"/><path id="path8_fill" d="M7.83 3.235C6.797 1.412 5.423 0 3.915 0S1.033 1.412 0 3.235c1.145-.29 2.492-.454 3.915-.454 1.424 0 2.77.163 3.915.454z"/></defs></svg>