<svg viewBox="0 0 16 16" xmlns="http://www.w3.org/2000/svg"><g fill="none"><circle fill="#4285F4" cx="8" cy="8" r="8"/><path d="M15.675 10.263a8.006 8.006 0 0 1-6.953 5.704l-5.517-5.516c.238.253 2.977-5.178 2.977-5.178s4.52.112 4.31-.131l5.183 5.12z" fill-opacity=".1" fill="#000"/><path d="M11.273 6.918h-.006A3.286 3.286 0 0 0 8 4a3.29 3.29 0 0 0-3.105 2.2 2.542 2.542 0 0 0-2.35 2.533c0 1.402 1.14 2.54 2.546 2.54l.026-.001h6.156a2.18 2.18 0 0 0 2.182-2.177 2.18 2.18 0 0 0-2.182-2.177zM9.09 8v1.818H6.91V8H5.817L8 5.818 10.182 8H9.09z" fill="#F5F5F5"/></g></svg>