<svg viewBox="0 0 16 16" xmlns="http://www.w3.org/2000/svg"><g fill="none" fill-rule="evenodd"><path d="M15 6.91C15 3.093 11.864 0 8 0S1 3.094 1 6.91c0 3.614 3.34 6.545 7 6.545V16c4.252-2.13 7-5.555 7-9.09z" fill="#00897B" fill-rule="nonzero"/><path d="M10.27 14.641L5.073 9.387 4.59 5.091l2.513-2 3.443.81 4.321 4.359c-.465 2.372-2.128 4.624-4.597 6.381z" fill-opacity=".1" fill="#000"/><path d="M8.844 4.727h.878v2.536c0 .478.157.694.482.694.392 0 .598-.42.598-1.313a2.9 2.9 0 0 0-.865-2.115 2.847 2.847 0 0 0-2.108-.877c-.83 0-1.53.292-2.107.877a2.898 2.898 0 0 0-.866 2.115c0 .834.288 1.54.866 2.126.57.578 1.271.866 2.107.866a2.56 2.56 0 0 0 1.19-.265l.087-.044.342.84-.08.036a3.7 3.7 0 0 1-1.539.32 3.91 3.91 0 0 1-1.964-.51A3.839 3.839 0 0 1 4.07 7.64a3.999 3.999 0 0 1-.005-1.995A3.823 3.823 0 0 1 5.067 3.89c.242-.242.51-.445.805-.61.293-.163.605-.29.935-.38a3.84 3.84 0 0 1 1.022-.136c.7 0 1.346.17 1.934.512a3.673 3.673 0 0 1 1.4 1.418c.344.596.516 1.247.516 1.95 0 .646-.133 1.162-.404 1.546-.275.39-.658.587-1.14.587-.473 0-.841-.215-1.095-.638-.328.424-.78.638-1.347.638s-1.04-.2-1.412-.597c-.372-.397-.558-.898-.558-1.496 0-.593.186-1.09.558-1.487a1.818 1.818 0 0 1 1.374-.607c.465 0 .863.162 1.19.483v-.346zM6.678 6.684c0 .172.027.33.082.473a1.07 1.07 0 0 0 .572.607c.13.057.273.085.43.085a1.06 1.06 0 0 0 1.001-.682 1.36 1.36 0 0 0 .081-.483c0-.173-.027-.332-.081-.479a1.01 1.01 0 0 0-.227-.365 1.06 1.06 0 0 0-.775-.322 1.06 1.06 0 0 0-.774.326 1.07 1.07 0 0 0-.227.367c-.055.143-.082.3-.082.473z" fill="#F5F5F5" fill-rule="nonzero"/></g></svg>