<svg viewBox="0 0 16 16" xmlns="http://www.w3.org/2000/svg"><g fill="none" fill-rule="evenodd"><path d="M0 3.002A1 1 0 0 1 1 2h14c.552 0 1 .456 1 1.002v9.996A1 1 0 0 1 15 14H1c-.552 0-1-.456-1-1.002V3.002z" fill="#E0E0E0"/><path fill="#F5F5F5" d="M1 3h14v10H1z"/><path d="M13.233 10.362H8l-2.153 3.636H3.105V9.76a5.819 5.819 0 0 1 10.128.601z" fill="#EA4335" fill-rule="nonzero"/><path d="M3.094 9.777l2.41 4.221h-3.22a5.85 5.85 0 0 1-.102-1.09c0-1.153.335-2.227.912-3.13z" fill="#34A853" fill-rule="nonzero"/><path d="M13.14 10.18H8l2.16 3.818h3.556a5.85 5.85 0 0 0-.575-3.818z" fill="#FBBC05" fill-rule="nonzero"/><path d="M5.5 13.998a2.727 2.727 0 1 1 5 0h-5z" fill="#F1F1F1" fill-rule="nonzero"/><path d="M5.818 12.907a2.182 2.182 0 1 1 4.072 1.091H6.11a2.172 2.172 0 0 1-.292-1.09z" fill="#4285F4" fill-rule="nonzero"/><path d="M0 2.99C0 2.445.445 2 1 2h14a1 1 0 0 1 1 .99V8H0V2.99z" fill-opacity=".05" fill="#000"/></g></svg>