<svg viewBox="0 0 16 16" xmlns="http://www.w3.org/2000/svg"><g fill="none" fill-rule="evenodd"><path d="M.818 3.318l-.683-.683a4.987 4.987 0 0 1 4.728-1.529 5.002 5.002 0 0 1 8.041 2.917A3.5 3.5 0 0 1 12.5 11H4a4 4 0 1 1 2.567-7.067l.615-.615A4.486 4.486 0 0 0 4 2 4.486 4.486 0 0 0 .818 3.318zm5.106 1.258A3.484 3.484 0 0 0 4 4c-.71 0-1.372.212-1.924.576l.69.69A2.99 2.99 0 0 1 4 5c.44 0 .858.095 1.235.265l.69-.69z" fill="#EEE"/><path d="M14 8c0 .552-.456 1-1.002 1H3.002A.999.999 0 0 1 2 8c0-.552.456-1 1.002-1h9.996A.999.999 0 0 1 14 8z" fill="#4D4D4D"/><path d="M13 15.002c0 .551-.456.998-.995.998h-8.01A.996.996 0 0 1 3 15.002V7h10v8.002z" fill="#4285F4"/><path d="M5 9v1h6V9H5zm0 2v1h6v-1H5z" fill="#FFF"/><path d="M15.424 9.424A3.5 3.5 0 0 1 13 10.964V7l2.424 2.424z" fill-opacity=".1" fill="#000"/></g></svg>