<svg viewBox="0 0 16 16" xmlns="http://www.w3.org/2000/svg"><g fill="none" fill-rule="evenodd"><circle fill="#3367D6" cx="8" cy="8" r="8"/><path d="M11.044 15.4L5.84 10.234l-.318-3.219.697-3.931 8.819 8.725a8.03 8.03 0 0 1-3.994 3.593z" fill-opacity=".1" fill="#000" fill-rule="nonzero"/><path d="M5.49 6.99H4.286v1.223a9.633 9.633 0 0 0 3.522 3.513l1.214-.001.001-1.213A8.387 8.387 0 0 1 5.49 6.99z" fill="#E1E1E1" fill-rule="nonzero"/><path d="M12.601 9.66c.272.035.399.142.399.386v2.533c0 .23-.187.416-.416.416-1.739 0-3.37-.46-4.775-1.269l2.304-2.303c.116-.115.277-.129.428-.1.627.122 1.364.246 2.06.337zM6.337 3.38c.09.697.23 1.474.351 2.102.03.15.016.312-.1.428L4.286 8.214A9.623 9.623 0 0 1 3 3.42c0-.23.187-.418.416-.418h2.538c.23-.001.349.107.384.38z" fill="#F1F1F1" fill-rule="nonzero"/></g></svg>