<svg viewBox="0 0 16 16" xmlns="http://www.w3.org/2000/svg"><g fill="none" fill-rule="evenodd"><path d="M12.571 0H7.714a.86.86 0 0 0-.857.857v10.857a.86.86 0 0 0 .857.857h7.429a.86.86 0 0 0 .857-.857V3.43L14 2l-1.429-2z" fill="#FBBC05"/><path d="M13.286 5.714H9.57a.43.43 0 0 0-.428.429v3.714a.43.43 0 0 0 .428.429h3.715a.43.43 0 0 0 .428-.429V6.143a.43.43 0 0 0-.428-.429zm-.143 3.143H9.714v-2h3.429v2z" fill="#F5F5F5"/><path fill-opacity=".1" fill="#BF360C" d="M12.822 3.178L16 6.355V3.429z"/><path d="M12.571 0v2.571c0 .474.384.858.858.858H16L12.571 0z" fill="#FBDD81"/><path d="M9.143 1.714H4.286a.86.86 0 0 0-.857.857V13.43a.86.86 0 0 0 .857.857h7.428a.86.86 0 0 0 .857-.857V5.143l-2-1.429-1.428-2z" fill="#34A853"/><path d="M5.714 8v4h4.572V8H5.714zm2 3.429H6.286v-.572h1.428v.572zm0-1.143H6.286v-.572h1.428v.572zm0-1.143H6.286V8.57h1.428v.572zm2 2.286H8.286v-.572h1.428v.572zm0-1.143H8.286v-.572h1.428v.572zm0-1.143H8.286V8.57h1.428v.572z" fill="#F5F5F5"/><path fill-opacity=".1" fill="#000" d="M9.394 4.892L12.57 8.07V5.143z"/><path d="M9.143 1.714v2.572c0 .473.383.857.857.857h2.571L9.143 1.714z" fill="#97D2AF"/><path d="M5.714 3.429H.857A.86.86 0 0 0 0 4.286v10.857A.86.86 0 0 0 .857 16h7.429a.86.86 0 0 0 .857-.857V6.857l-2-1.428-1.429-2z" fill="#4285F4"/><path fill-opacity=".1" fill="#000" d="M5.965 6.606l3.178 3.178V6.857z"/><path d="M2.286 12.571h4.571V12H2.286v.571zm0 1.143h3.428v-.571H2.286v.571zm0-4v.572h4.571v-.572H2.286zm0 1.715h4.571v-.572H2.286v.572z" fill="#F5F5F5"/><path d="M5.714 3.429V6c0 .474.384.857.857.857h2.572L5.714 3.43z" fill="#A1C2FA"/></g></svg>