<svg viewBox="0 0 16 16" xmlns="http://www.w3.org/2000/svg"><g fill="none"><path d="M9.293 10.972L5.435 16h2.007c.339 0 .659-.158.865-.426l3.531-4.601H9.293v-.001zM1.03 12.364c-.34 0-.658.157-.865.426L0 13.005l1.086.241.636.83 1.316-1.712H1.03z" fill="#E0E0E0"/><path d="M6.397 14.746l1.237 1.237a1.089 1.089 0 0 1-.192.017H5.435l.962-1.254z" fill-opacity=".05" fill="#000"/><path d="M8 0a1.09 1.09 0 0 0-.737.286L1.365 5.691a1.091 1.091 0 0 0-.129 1.468h13.527a1.09 1.09 0 0 0-.128-1.468L8.736.286A1.087 1.087 0 0 0 8 0z" fill="#009688"/><path d="M3.277 9.818h9.446l-3.858 5.027a1.09 1.09 0 0 1-1.73 0L3.277 9.818z" fill="#FDD835"/><path d="M12.165 10.546L8 10.182l-4.165.364L1.236 7.16a1.088 1.088 0 0 1-.223-.73L8 5.82l6.987.61c.016.255-.057.514-.223.73l-2.6 3.387z" fill="#00E676"/><path d="M7.442 16c-.34 0-.66-.158-.866-.426L4.441 12.79a1.09 1.09 0 0 0-.866-.426H1.03c.34 0 .66.158.865.426l2.136 2.783c.206.269.526.426.865.426h2.546z" fill="#F5F5F5"/></g></svg>