<svg viewBox="0 0 16 16" xmlns="http://www.w3.org/2000/svg"><g fill="none"><path d="M15.325 2H.713A.717.717 0 0 0 0 2.706v11.551c0 .384.325.743.713.743h4.412v-.532c0-.236.138-.421.375-.421s.375.185.375.42V15h4.25v-.532c0-.236.2-.421.438-.421a.43.43 0 0 1 .437.42V15h4.325c.388 0 .675-.347.675-.743V2.706c0-.384-.287-.706-.675-.706z" fill="#34A853"/><ellipse fill="#FFF" cx="8.025" cy="6.024" rx="1.413" ry="1.399"/><path d="M8.787 7.856c-1.012-.05-2.137-.037-2.6-.16-.512-.137-1.2-.583-1.337-1.87a.727.727 0 0 0-.188-.434c-.137-.136-.3-.247-.675-.185-.85.148-.925 2.03.438 3.553.338.322.7.557 1.013.78.287.198.512.421.525.953v1.127h4.2v-1.424h.037c.35.013.663.112.85 1.164.012.062.1.248.25.248h1.125c.125-.013.188-.124.188-.236v-.024c-.363-2.29-.888-3.33-3.825-3.492z" fill="#FFF"/></g></svg>