<svg viewBox="0 0 16 16" xmlns="http://www.w3.org/2000/svg"><g fill="none"><path d="M14 14.91c0 .44-.274.838-.695 1.007a1.15 1.15 0 0 1-1.226-.237L8 11.727V4.273L12.08.32a1.15 1.15 0 0 1 1.225-.237c.42.168.695.566.695 1.007v13.818z" fill="#0288D1"/><path d="M13.305 15.915c.423-.165.699-.564.695-1.006v-4.818L8 4.273v7.454l4.08 3.952c.32.316.806.409 1.225.236z" fill-opacity=".1" fill="#000"/><path d="M2 14.91c0 .44.274.838.695 1.007.42.169.904.075 1.226-.237L8 11.727V4.273L3.92.32A1.15 1.15 0 0 0 2.696.084 1.09 1.09 0 0 0 2 1.09v13.818z" fill="#3F51B5"/><path d="M11.313 8.515L8 11.727 4.687 8.515a.712.712 0 0 1 0-1.029L8 4.273l3.313 3.212a.716.716 0 0 1 0 1.03z" fill="#EEE"/><path d="M8 11.727L4.687 8.515a.712.712 0 0 1 0-1.029L8 4.273v7.454z" fill="#D0D4ED"/></g></svg>