<svg viewBox="0 0 16 16" xmlns="http://www.w3.org/2000/svg"><g fill="none"><path d="M0 6.995C0 6.445.445 6 1 6h14c.552 0 1 .456 1 .995v8.01c0 .55-.445.995-1 .995H1c-.552 0-1-.456-1-.995v-8.01z" fill="#616161"/><path d="M3 13.25c0-.138.093-.25.208-.25h9.584c.115 0 .208.112.208.25v1.5c0 .138-.093.25-.208.25H3.208C3.093 15 3 14.888 3 14.75v-1.5zm-1-3a.25.25 0 0 1 .25-.25h1.5a.25.25 0 0 1 .25.25v1.5a.25.25 0 0 1-.25.25h-1.5a.25.25 0 0 1-.25-.25v-1.5zm3 0a.25.25 0 0 1 .25-.25h1.5a.25.25 0 0 1 .25.25v1.5a.25.25 0 0 1-.25.25h-1.5a.25.25 0 0 1-.25-.25v-1.5zm4 0a.25.25 0 0 1 .25-.25h1.5a.25.25 0 0 1 .25.25v1.5a.25.25 0 0 1-.25.25h-1.5a.25.25 0 0 1-.25-.25v-1.5zm3 0a.25.25 0 0 1 .25-.25h1.5a.25.25 0 0 1 .25.25v1.5a.25.25 0 0 1-.25.25h-1.5a.25.25 0 0 1-.25-.25v-1.5zm-10-3A.25.25 0 0 1 2.25 7h1.5a.25.25 0 0 1 .25.25v1.5a.25.25 0 0 1-.25.25h-1.5A.25.25 0 0 1 2 8.75v-1.5zm10 0a.25.25 0 0 1 .25-.25h1.5a.25.25 0 0 1 .25.25v1.5a.25.25 0 0 1-.25.25h-1.5a.25.25 0 0 1-.25-.25v-1.5z" fill="#BDBDBD"/><path d="M3 1.003C3 .449 3.456 0 3.995 0h8.01c.55 0 .995.438.995 1.003V7c0 .33-.422.575-.678.782L8 11.272l-4.322-3.49C3.422 7.575 3 7.33 3 7V1.003z" fill="#16C1D7"/><path d="M10.496 3.832a2.886 2.886 0 0 0-.79-.377c.035-.18.081-.323.081-.51h-.812c-.016.14-.065.264-.1.388-.516-.047-1.077-.036-1.556.083v-.86h3.308v-.778H7.32V1h-.773v.778H4.8v.778h1.745s.01 1.171 0 1.177a5.111 5.111 0 0 0-1.407 1.113c-.493.575-.707 1.198-.62 1.805.04.28.187.523.414.685.261.188.606.256.968.194.334-.055.616-.2.928-.316.098.183.254.347.415.477.051-.052.559-.572.562-.569-.101-.095-.222-.207-.285-.332.422-.313.86-.767 1.305-1.35.26-.341.457-.748.584-1.177.01-.025.015-.04.025-.059.222.068.431.16.58.268.42.303.564.743.437 1.342-.178.858-1.244 1.39-2.161 1.39V8c1.263 0 2.692-.76 2.956-2.026.187-.898-.08-1.659-.751-2.142zM5.773 6.751c-.141.023-.27.004-.351-.054a.208.208 0 0 1-.09-.154c-.103-.73.48-1.426 1.215-1.903v1.5c-.002.039-.01.15 0 .29-.298.166-.524.279-.774.32zM8.17 4.967c-.255.338-.604.605-.85.842V4.216c.346-.113.807-.14 1.16-.14l.135.001a2.86 2.86 0 0 1-.445.89z" fill="#F1F1F1"/></g></svg>