<svg viewBox="0 0 16 16" xmlns="http://www.w3.org/2000/svg"><g fill="none"><path d="M13.657 13.657L10.83 10.83a4.001 4.001 0 0 1-5.657 0l-2.828 2.828a8 8 0 0 0 11.313 0z" fill="#FBBC05"/><path d="M13.656 2.343l-2.828 2.829a4 4 0 0 1 .001 5.655 1.997 1.997 0 0 0 0 2.83 2 2 0 0 0 2.868-.042 8 8 0 0 0-.04-11.272z" fill="#EA4335"/><path d="M7.926 0a8 8 0 0 0-5.583 13.656l2.829-2.828a4.001 4.001 0 0 1 5.657-5.657 2 2 0 0 0 2.828-2.828A7.974 7.974 0 0 0 8.074 0h-.148z" fill="#4285F4"/><circle fill="#34A853" transform="rotate(-45 3.757 12.243)" cx="3.757" cy="12.243" r="2"/></g></svg>