<svg viewBox="0 0 16 16" xmlns="http://www.w3.org/2000/svg"><g fill="none" fill-rule="evenodd"><path d="M14 1v4H8c-1.105 0-2-.888-2-2 0-1.105.887-2 2-2h6zm0 10v4H8c-1.105 0-2-.888-2-2 0-1.105.887-2 2-2h6zM8 6v4H2c-1.105 0-2-.888-2-2 0-1.105.887-2 2-2h6z" fill="#669DF6"/><path d="M12 3c0-1.105.888-2 2-2 1.105 0 2 .888 2 2 0 1.105-.888 2-2 2-1.105 0-2-.888-2-2zm0 10c0-1.105.888-2 2-2 1.105 0 2 .888 2 2 0 1.105-.888 2-2 2-1.105 0-2-.888-2-2zM6 8c0-1.105.888-2 2-2 1.105 0 2 .888 2 2 0 1.105-.888 2-2 2-1.105 0-2-.888-2-2z" fill="#1A73E8"/></g></svg>