<svg viewBox="0 0 16 16" xmlns="http://www.w3.org/2000/svg"><g fill="none" fill-rule="evenodd"><circle fill="#3367D6" cx="8" cy="8" r="8"/><path d="M8.613 15.977l-4.795-4.795 8.091-6.727 4.068 4.158a8.002 8.002 0 0 1-7.364 7.364z" fill-opacity=".1" fill="#000" fill-rule="nonzero"/><path d="M10.545 4H2.373a.372.372 0 0 0-.313.575l1.213 1.871v3.372c0 1.2.982 2.182 2.182 2.182h5.09c1.2 0 2.182-.982 2.182-2.182V6.182c0-1.2-.982-2.182-2.182-2.182z" fill="#F5F5F5"/><path d="M10.91 6.182c0 .3-.245.545-.546.545H5.636a.546.546 0 0 1 0-1.09h4.728c.3 0 .545.244.545.545zM8.726 9.818a.546.546 0 0 1-.545.546H5.636a.546.546 0 0 1 0-1.091h2.546c.3 0 .545.244.545.545zM10.91 8c0 .3-.244.545-.545.545H5.636a.546.546 0 0 1 0-1.09h4.728c.3 0 .545.244.545.545z" fill="#BDBDBD"/></g></svg>