<svg viewBox="0 0 16 16" xmlns="http://www.w3.org/2000/svg"><g fill="none"><path d="M13.677 13.637l-.04.04A7.975 7.975 0 0 1 8 16c-2.21 0-4.21-.896-5.657-2.344L2.28 2.407a8.05 8.05 0 0 1 .127-.127l11.25.063A7.975 7.975 0 0 1 16 8c0 2.199-.887 4.19-2.323 5.637z" fill="#4285F4"/><path d="M2.323 2.363l.04-.04A7.975 7.975 0 0 1 8 0c2.199 0 4.19.887 5.637 2.323l.02.02L2.343 13.656l-.075-.074A7.974 7.974 0 0 1 0 8c0-2.199.887-4.19 2.323-5.637z" fill="#3B78E7"/><path d="M10.545 9.382a2.86 2.86 0 0 0 2.537-2.473h.002l.001-.024c.014-.11.021-.221.022-.335V5.09h-2.182V6h1.273v.545a1.955 1.955 0 0 1-1.653 1.921v.916zM8.727 12v-1.818H7.273V12H6.182a.727.727 0 0 0-.727.727v.364h5.09v-.364A.727.727 0 0 0 9.818 12H8.727zM5.455 8.464v.916a2.86 2.86 0 0 1-2.52-2.47h-.002l-.002-.025a2.841 2.841 0 0 1-.022-.335V5.09h2.182V6H3.818v.545a1.954 1.954 0 0 0 1.637 1.919z" fill="#E0E0E0"/><path d="M11.11 15.373l-5.338-5.34a3.265 3.265 0 0 1-1.045-2.397V4h6.546l4.697 4.698a8.006 8.006 0 0 1-4.86 6.675z" fill-opacity=".1" fill="#000"/><path d="M4.727 4v3.636a3.273 3.273 0 0 0 6.546 0V4H4.727zm4.458 5.09L8 8.335l-1.185.757.35-1.364-1.063-.909 1.366-.06L8 5.454l.532 1.302 1.366.061-1.063.91.35 1.363z" fill="#EEE"/></g></svg>