<svg viewBox="0 0 16 16" xmlns="http://www.w3.org/2000/svg"><g fill="none"><path d="M8 16l3.634-8L8 0 2 3.273v4c0 3.93 2.558 7.832 6 8.727z" fill="#FFA726"/><path d="M8 16V0l6 3.273v4c0 3.93-2.558 7.832-6 8.727z" fill="#FBBC05"/><path d="M9.202 4.485l-.003.003A1.724 1.724 0 0 0 8 4c-.974 0-1.765.815-1.765 1.818v.727h-.353a.717.717 0 0 0-.706.728v3.636c0 .228.103.432.263.566l3.892 4.01c2.223-1.152 3.901-3.58 4.464-6.267L9.202 4.485z" fill-opacity=".1" fill="#BF360C"/><path d="M10.118 6.545h-.353v-.727C9.765 4.815 8.975 4 8 4c-.974 0-1.765.815-1.765 1.818v.727h-.353a.717.717 0 0 0-.706.728v3.636c0 .402.316.727.706.727h4.236c.39 0 .706-.325.706-.727V7.273a.717.717 0 0 0-.706-.728zM8 9.818a.717.717 0 0 1-.706-.727c0-.402.316-.727.706-.727.39 0 .706.325.706.727A.717.717 0 0 1 8 9.818zm1.059-3.273H6.94v-.763c0-.602.475-1.091 1.059-1.091s1.059.489 1.059 1.09v.764z" fill="#F5F5F5"/></g></svg>