<svg viewBox="0 0 16 16" xmlns="http://www.w3.org/2000/svg"><g fill="none"><circle fill="#F5F5F5" cx="8" cy="8" r="8"/><path d="M15.993 7.662l-3.042-3.058-9.667 2.043 3.008 3.009-.32 2.984 3.256 3.266a8.002 8.002 0 0 0 6.765-8.244z" fill-opacity=".1" fill="#000"/><path d="M11.656 4H4.25a1.5 1.5 0 1 0 0 3h2.748l4.658-3z" fill="#4878FF"/><path d="M13.156 5.5a1.5 1.5 0 0 0-1.5-1.5H10.5a4.5 4.5 0 0 0-4.44 3.76l-.586 3.514a1.484 1.484 0 0 0 2.925.494l.606-3.522A1.5 1.5 0 0 1 10.483 7h1.173a1.5 1.5 0 0 0 1.5-1.5z" fill="#20C0F0"/><circle fill="#18E8A8" cx="11.75" cy="5.5" r="1.5"/></g></svg>