<svg viewBox="0 0 16 16" xmlns="http://www.w3.org/2000/svg"><g fill="none"><path d="M.952 3.132c.794-.324 1.711.032 2.048.793l3.539 7.992c.337.761-.034 1.64-.828 1.963-.794.323-1.71-.032-2.048-.793L.125 5.095c-.337-.761.033-1.64.827-1.963z" fill="#4285F4"/><path d="M5.985 3.132c.794-.324 1.71.032 2.048.793l3.538 7.992c.337.761-.033 1.64-.827 1.963-.794.323-1.711-.032-2.048-.793L5.157 5.095c-.337-.761.034-1.64.828-1.963z" fill="#FBBC05"/><ellipse fill="#EA4335" cx="14.351" cy="4.581" rx="1.649" ry="1.581"/><ellipse fill="#34A853" cx="12.789" cy="8.075" rx="1.649" ry="1.581"/></g></svg>