<svg viewBox="0 0 32 32" xmlns="http://www.w3.org/2000/svg"><g fill="none"><path d="M28.819 5H3.247C2.569 5 2 5.545 2 6.194v19.549C2 26.393 2.569 27 3.247 27h7.722v-.901c0-.398.24-.712.656-.712.416 0 .656.314.656.712V27h7.438v-.901c0-.398.35-.712.765-.712.416 0 .766.314.766.712V27h7.569c.678 0 1.181-.587 1.181-1.257V6.194C30 5.544 29.497 5 28.819 5z" fill="#34A853"/><ellipse fill="#FFF" cx="16.044" cy="11.81" rx="2.472" ry="2.368"/><path d="M17.378 14.91c-1.772-.083-3.74-.062-4.55-.272-.897-.23-2.1-.985-2.34-3.164a1.212 1.212 0 0 0-.329-.733c-.24-.23-.525-.42-1.18-.314-1.488.251-1.62 3.436.765 6.013.59.545 1.225.943 1.772 1.32.503.335.896.712.918 1.613v1.907h7.35v-2.41h.066c.612.021 1.16.189 1.487 1.97.022.105.175.419.438.419h1.969c.218-.02.328-.21.328-.398v-.042c-.634-3.876-1.553-5.636-6.694-5.909z" fill="#FFF"/></g></svg>