<svg viewBox="0 0 32 32" xmlns="http://www.w3.org/2000/svg"><g fill="none"><path d="M2 13.929A1.92 1.92 0 0 1 3.91 12h24.18A1.92 1.92 0 0 1 30 13.929V28.07A1.919 1.919 0 0 1 28.09 30H3.91A1.919 1.919 0 0 1 2 28.071V13.929z" fill="#616161"/><path d="M8 24.25c0-.138.15-.25.333-.25h15.334c.184 0 .333.112.333.25v1.5c0 .138-.15.25-.333.25H8.333C8.15 26 8 25.888 8 25.75v-1.5zm-1-4a.25.25 0 0 1 .25-.25h1.5a.25.25 0 0 1 .25.25v1.5a.25.25 0 0 1-.25.25h-1.5a.25.25 0 0 1-.25-.25v-1.5zm4 0a.25.25 0 0 1 .25-.25h1.5a.25.25 0 0 1 .25.25v1.5a.25.25 0 0 1-.25.25h-1.5a.25.25 0 0 1-.25-.25v-1.5zm4 0a.25.25 0 0 1 .25-.25h1.5a.25.25 0 0 1 .25.25v1.5a.25.25 0 0 1-.25.25h-1.5a.25.25 0 0 1-.25-.25v-1.5zm4 0a.25.25 0 0 1 .25-.25h1.5a.25.25 0 0 1 .25.25v1.5a.25.25 0 0 1-.25.25h-1.5a.25.25 0 0 1-.25-.25v-1.5zm4 0a.25.25 0 0 1 .25-.25h1.5a.25.25 0 0 1 .25.25v1.5a.25.25 0 0 1-.25.25h-1.5a.25.25 0 0 1-.25-.25v-1.5zm-16-4a.25.25 0 0 1 .25-.25h1.5a.25.25 0 0 1 .25.25v1.5a.25.25 0 0 1-.25.25h-1.5a.25.25 0 0 1-.25-.25v-1.5zm16 0a.25.25 0 0 1 .25-.25h1.5a.25.25 0 0 1 .25.25v1.5a.25.25 0 0 1-.25.25h-1.5a.25.25 0 0 1-.25-.25v-1.5z" fill="#BDBDBD"/><path d="M26.182 30L16 22l8.273-10h3.818c1.054 0 1.909.863 1.909 1.929V28.07A1.919 1.919 0 0 1 28.09 30h-1.908z" fill-opacity=".1" fill="#000"/><path d="M8 4.004A2 2 0 0 1 9.994 2h12.012C23.107 2 24 2.905 24 4.004V14.3c0 .585-.252 1.138-.686 1.506L16 22l-7.314-6.193A1.973 1.973 0 0 1 8 14.3V4.004z" fill="#16C1D7"/><path d="M19.92 8.229c-.358-.258-.806-.452-1.241-.593.053-.282.127-.507.127-.801H17.53c-.026.22-.102.415-.158.61-.81-.074-1.691-.056-2.444.13V6.224h5.197V5.002h-5.197V3.78h-1.214v1.222h-2.742v1.222h2.742s.015 1.84 0 1.85c-.516.276-1.457.87-2.21 1.748-.774.902-1.11 1.881-.975 2.834.063.442.295.822.651 1.077.41.295.952.402 1.521.306.524-.087.967-.315 1.457-.497.154.287.4.544.652.749.081-.081.879-.898.883-.894-.159-.15-.348-.325-.447-.522.662-.492 1.35-1.204 2.05-2.122a5.756 5.756 0 0 0 .917-1.848c.017-.038.023-.06.04-.091.348.105.676.252.91.42.66.476.886 1.167.687 2.109-.28 1.347-1.955 2.184-3.395 2.184v1.25c1.984 0 4.23-1.195 4.643-3.184.295-1.41-.125-2.605-1.179-3.364zm-7.42 4.585c-.222.036-.423.006-.552-.084a.327.327 0 0 1-.14-.243c-.162-1.146.753-2.24 1.907-2.989v2.355c-.003.063-.015.237 0 .457-.467.26-.823.438-1.215.504zm3.767-2.803c-.401.532-.95.952-1.336 1.323V8.832c.544-.177 1.268-.221 1.822-.221.072 0 .14 0 .212.003a4.493 4.493 0 0 1-.698 1.397z" fill="#F1F1F1"/></g></svg>