<svg viewBox="0 0 32 32" xmlns="http://www.w3.org/2000/svg"><g fill="none"><path d="M16 30l6.663-14L16 2 5 7.727v7C5 21.607 9.69 28.433 16 30z" fill="#FFA726"/><path d="M16 30V2l11 5.727v7c0 6.88-4.69 13.706-11 15.273z" fill="#FBBC05"/><path d="M18.203 9.85l-.005.004A3.24 3.24 0 0 0 16 9c-1.786 0-3.235 1.425-3.235 3.182v1.273h-.647c-.715 0-1.294.57-1.294 1.272v6.364c0 .4.187.756.48.99l7.137 7.019c4.075-2.018 7.152-6.267 8.184-10.968L18.203 9.85z" fill-opacity=".1" fill="#BF360C"/><path d="M19.882 13.455h-.647v-1.273C19.235 10.425 17.785 9 16 9c-1.786 0-3.235 1.425-3.235 3.182v1.273h-.647c-.715 0-1.294.57-1.294 1.272v6.364c0 .703.579 1.273 1.294 1.273h7.764c.715 0 1.294-.57 1.294-1.273v-6.364c0-.703-.579-1.272-1.294-1.272zM16 19.182c-.715 0-1.294-.57-1.294-1.273s.579-1.273 1.294-1.273c.715 0 1.294.57 1.294 1.273s-.579 1.273-1.294 1.273zm1.941-5.727H14.06v-1.337c0-1.053.87-1.909 1.941-1.909 1.07 0 1.941.856 1.941 1.91v1.336z" fill="#F5F5F5"/></g></svg>