<svg viewBox="0 0 32 32" xmlns="http://www.w3.org/2000/svg"><g fill="none"><circle fill="#F5F5F5" cx="16" cy="16" r="14"/><path d="M29.98 16.765l-5.728-5.759L8.14 14.411l5.012 5.016-.534 4.973 5.435 5.45c6.511-.957 11.565-6.397 11.925-13.085z" fill-opacity=".1" fill="#000"/><path d="M22.094 10H9.75a2.5 2.5 0 1 0 0 5h4.58l7.764-5z" fill="#4878FF"/><path d="M24.594 12.5a2.5 2.5 0 0 0-2.5-2.5h-1.928a7.5 7.5 0 0 0-7.399 6.267l-.976 5.856a2.473 2.473 0 0 0 4.875.824l1.009-5.87A2.5 2.5 0 0 1 20.139 15h1.955a2.5 2.5 0 0 0 2.5-2.5z" fill="#20C0F0"/><circle fill="#18E8A8" cx="22.25" cy="12.5" r="2.5"/></g></svg>