<svg viewBox="0 0 32 32" xmlns="http://www.w3.org/2000/svg"><g fill="none" fill-rule="evenodd"><path d="M8.65 4.863C8.922 4.386 9.6 4 10.15 4h11.7c.557 0 1.229.386 1.501.863l5.871 10.274c.272.477.273 1.249 0 1.726l-5.87 10.274c-.273.477-.95.863-1.502.863h-11.7c-.557 0-1.229-.386-1.501-.863l-5.87-10.274c-.272-.477-.273-1.249 0-1.726l5.87-10.274z" fill="#4285F4"/><path d="M27.05 20.664l-3.7 6.473c-.272.477-.95.863-1.501.863h-1.203L9.573 16.927l1.91-1.537 1 1L13.5 14l2.41-1.083-1-1 1.578-1.814 10.561 10.561z" fill-opacity=".1" fill="#000"/><path d="M17.077 11.875a4.764 4.764 0 0 0-2.167.042l.516-1.678a.362.362 0 0 1 .326-.239h.496c.145 0 .285.107.326.239l.503 1.636zm3.634 3.574l1.55.477a.356.356 0 0 1 .239.326v.496a.25.25 0 0 1-.248.252h-1.444a4.8 4.8 0 0 0-.097-1.55zM11.356 17H9.748a.247.247 0 0 1-.248-.252v-.496c0-.139.107-.285.239-.326l1.727-.531a4.758 4.758 0 0 0-.11 1.605zM16 20.5a4 4 0 1 1 0-8 4 4 0 0 1 0 8zm0-1a3 3 0 1 0 0-6 3 3 0 0 0 0 6zm-1.06-1.94a1.5 1.5 0 0 1 2.121-2.121l.353-.353a2 2 0 1 1-2.828 2.828l.353-.353zM16 17.5a1 1 0 1 0 0-2 1 1 0 0 0 0 2z" fill="#FFF"/></g></svg>